<svg xmlns="http://www.w3.org/2000/svg" viewBox="0 0 2373.75 519.08"><defs><style>.cls-1{fill:#fff;}</style></defs><path class="cls-1" d="M701.54,160c36.66,0,71.66,14.17,94.15,36.66,8.34-25.83,22.5-48.32,40-71.65A217.39,217.39,0,0,0,701.54,79.15c-120,.84-220,98.32-220,220.8,0,120,96.65,219.13,219.13,219.13,51.66,0,96.65-17.5,134.14-45.83-17.49-22.5-28.32-45.83-40-71.65-25.83,22.49-56.66,36.66-94.15,36.66-76.65,0-140-62.49-140-140C561.57,222.46,624.06,160,701.54,160ZM248.29,0c-14.16,0-25.83,8.33-31.66,20L0,501.58H85.82l31.66-68.32H379.93l31.66,68.32h85.82l-215-478.25C276.62,9.17,262.45,0,248.29,0ZM154.14,356.6l96.65-214.13L348.27,356.6ZM1285.61,300c0-120-94.15-214.13-210.8-219.13-2.5,0-5.83,2.5-2.5,5.83,8.33,17.5,28.33,56.66,62.49,82.49,45.83,34.16,71.65,76.65,71.65,128.31,0,65.82-51.65,140-136.64,140-85.82,0-136.64-74.15-136.64-140,0-51.66,28.33-94.15,71.65-128.31,34.16-28.33,56.66-68.32,62.49-85.82,2.5-2.5,0-5.83-2.5-5.83-120,2.5-214.13,100-214.13,219.12,0,96.65,82.49,210.8,216.63,210.8,60,0,110.82-17.5,148.31-48.32l42.49,40h120L1265.61,393.26C1277.28,368.27,1285.61,336.61,1285.61,300Zm529.9-211.63H1898V501.58h-82.49Zm-160,208.29c0,85.82-42.49,140-114.14,140s-114.15-54.16-114.15-140V88.32h-82.49V296.61c0,125,82.49,216.63,196.64,216.63S1738,422.43,1738,296.61V88.32h-82.49V296.61ZM2294.6,154.14l-17.5-17.5c-36.66-40-80-60-128.31-60-54.16,0-102.48,20-136.64,62.49-36.66,40-54.16,94.15-54.16,154.14,0,62.49,20,116.65,54.16,156.64,36.66,40,85.81,62.49,140,62.49,45.83,0,85.82-20,125-54.16l14.16-14.16v57.49h82.49V88.32h-82.49v65.82Zm-31.66,248.29c-25.83,28.33-56.66,40-96.65,40-36.66,0-68.33-14.16-90.82-42.49s-34.16-62.49-34.16-105.82c0-40,11.66-74.15,36.66-102.48s56.66-42.49,90.82-42.49c40,0,71.65,14.16,94.15,42.49s36.66,62.49,36.66,105.82c0,41.66-10.84,76.65-36.66,105Z"/></svg>