<svg xmlns="http://www.w3.org/2000/svg" viewBox="0 0 2500.02 938.75">
  <defs>
    <style>.cls-1{fill:#fff;}</style>
  </defs>
  <path class="cls-1" d="M807.7,344.35c-48.93,0-103.56,18.85-115,80.9-1.22,6.59,3.14,9.73,7.36,10.69l50.15,6c4.64-.24,7.79-5.29,8.69-10,4.28-21.35,21.84-31.43,41.46-31.43,10.59,0,22.49,3.64,28.76,13.37,7.19,10.85,6.67,25.59,6.67,38.11v7.36c-29.8,3.42-69,5.5-96.94,18.06C706.65,491.7,684,520.82,684,563.64c0,54.86,33.61,82.24,76.9,82.24,36.54,0,56.74-8.58,84.92-38.1,9.35,13.9,12.35,20.22,29.42,34.76a10.28,10.28,0,0,0,12-1.32v.66c10.27-9.37,29-26.4,39.46-35.43,4.19-3.51,3.27-9.29,0-14-9.39-13.3-19.39-24-19.39-48.8V461.36c0-34.83,3-66.95-22.06-90.93-19.74-19.41-52.61-26.08-77.6-26.08Zm674,0c-49,0-103.54,18.85-115,80.9-1.22,6.59,3.13,9.73,7.36,10.69l50.16,6c4.64-.24,7.8-5.29,8.68-10,4.3-21.35,21.85-31.43,41.47-31.43,10.61,0,22.49,3.64,28.75,13.37,7.17,10.85,6,25.59,6,38.11v7.36c-29.81,3.42-68.36,5.5-96.29,18.06C1380.6,491.7,1358,520.82,1358,563.64c0,54.86,33.63,82.24,76.89,82.24,36.51,0,56.7-8.58,84.93-38.1,9.32,13.9,12.34,20.22,29.42,34.76a10.29,10.29,0,0,0,12-1.32v.66c10.27-9.37,29-26.4,39.45-35.43,4.18-3.51,3.21-9.29,0-14-9.39-13.3-19.38-24-19.38-48.8V461.36c0-34.83,2.25-66.95-22.72-90.93-19.77-19.41-51.95-26.08-76.94-26.08ZM1102.56,347c-31.62,0-55.07,16-67.53,50.15h-.66V361.74a10.1,10.1,0,0,0-9.37-9.37H976.86a10.19,10.19,0,0,0-10,10V633.19a10.41,10.41,0,0,0,9.37,9.38h51.48a10.15,10.15,0,0,0,10-10V488.77c0-31.34-1.52-74.22,35.43-74.22,36.48,0,31.43,44.05,31.43,74.22V632.53a10.23,10.23,0,0,0,9.37,10h51.48a10.15,10.15,0,0,0,10-10V488.77c0-15.38-.62-37.78,4.68-51.48s18.27-22.72,30.77-22.72c14.89,0,26.25,5.2,30.08,23.41,2.4,10.82,1.33,39.43,1.33,50.81V632.55a10.23,10.23,0,0,0,9.37,10h51.48a10.14,10.14,0,0,0,10-10V461.38c0-29.07,2.94-62.09-13.37-84.92C1285.43,356,1261.9,347,1240.33,347c-30.25,0-58.39,16-70.86,50.16C1155,363,1134.72,347,1102.56,347Zm875.25,0c-74.4,0-115.67,65.41-115.67,149.77,0,83.79,40.82,151.1,115.67,151.1,72,0,117.68-65.77,117.68-148.44,0-85.44-41.38-152.43-117.68-152.43Zm293.51,0c-35.54,0-55.84,17.78-70.2,54.82h-.66V360.37c-.92-4.19-4.88-7.1-9.38-7.36h-47.47a9.9,9.9,0,0,0-10,8.69V632.49a10.26,10.26,0,0,0,9.37,10h50.82a10.17,10.17,0,0,0,10-10V486.74c0-18.27,1.54-34.94,8.69-51.48,5.78-13.12,16.92-21.4,29.42-21.4,35.47,0,32.09,43.25,32.09,72.88v147.1a10.14,10.14,0,0,0,9.38,8.68h51.47a10.17,10.17,0,0,0,10-8.68V463.33c0-26.21.06-62.62-13.37-84.26-14.4-23.34-37.19-32.05-60.19-32.05Zm-617.81,4.69c-5.22,0-9.35,4.15-9.37,10v38.77c0,5.8,4,10,9.37,10h88.26l-101,149.11c-6.16,9.6-6.68,20.49-6.68,26.74v39.46c0,5.69,6.19,11.87,12,8.68,57.53-31.41,126.49-28.63,178.53-.66,6.31,3.44,12.71-3,12.71-8.69V583.73A17.6,17.6,0,0,0,1828,569c-29.52-17-63.8-22.19-96.28-21.4l87.6-128.38c8.11-11.53,12.64-18.48,12.71-24.07V361.74c0-5.75-3.94-10-9.37-10Zm324.3,50.81c16.3,0,28.33,7.28,34.1,26.09,6.68,21.67,7.36,48.74,7.36,71.54,0,34.75-1.62,92.26-41.46,92.26-40.29,0-40.12-71.2-40.12-104.3S1939.89,402.52,1977.81,402.52Zm-1142.7,99v11.36c0,20.56.75,37.87-9.37,56.17-8.18,14.87-21,24.07-35.43,24.07-19.69,0-31.43-16-31.43-38.77C758.9,509.33,798,501.48,835.11,501.48Zm674,0v11.36c0,20.56.75,37.87-9.37,56.17-8.17,14.87-20.94,24.07-35.43,24.07-19.7,0-31.43-16-31.43-38.77C1432.87,509.33,1471.9,501.48,1509.08,501.48Z"/><path class="cls-1" d="M1842.73,651.25V690h26.09V651.25Zm-756.22,6.68V934.07h24.07V909.33c5.14,9.8,11,17.14,18.06,22.06a41.26,41.26,0,0,0,24.07,7.36c17.68,0,32.93-9,46.13-27.41s20.07-45,20.07-78.91c0-22.18-2.84-40.56-8.69-56.16s-13.65-27.13-23.4-34.77-20.84-12-32.76-12a42.82,42.82,0,0,0-23.41,6.67c-7,4.45-12.58,11.71-18.06,20.74v-99Zm247.41,64.87c-18.15,0-32.55,5.37-42.8,16.05s-15.38,24.41-15.38,41.46a58.09,58.09,0,0,0,6,26.09,47.41,47.41,0,0,0,16,18.72c6.85,4.64,20.5,10.74,40.78,17.37,14,4.52,22.42,8.37,26.08,11.36,5.31,4.39,8,10.14,8,18.06,0,9.16-3.16,16.8-9.37,22.72s-14.78,8.69-26.08,8.69-20.6-3.17-27.41-10-10.48-17.31-12-31.44l-26.08,5.35c5.88,42.9,27.28,64.21,64.19,64.19,19.68,0,34.74-5.58,46.12-17.37s17.38-27.71,17.38-46.82c0-10.31-1.82-19.25-5.35-26.74a42.27,42.27,0,0,0-14.72-17.38c-6.36-4.32-20.52-10.09-42.13-17.37-15.7-5.5-24.9-9.52-28.07-12-5.33-4.24-8-10-8-17.38,0-7.53,2.49-13.9,8-18.72s14.08-7.36,25.42-7.36c19.94,0,31.09,11,33.42,32.76l25.42-4c-1.76-13.8-4.78-24.7-9.38-32.1A50,50,0,0,0,1364,728.81c-8.64-4.38-18.59-6-30-6Zm159.8,0c-20.9,0-38.53,8.6-52.16,26.75s-20.07,44.41-20.07,78.91c0,33.22,6.57,59.26,20.07,76.89s31,26.08,52.83,26.08c17.35,0,31.73-5.19,43.45-16s20.26-26.81,24.73-48.14l-26.74-4.69c-7.68,27.32-21.85,40.74-41.47,40.78-12.49,0-22.7-5.31-31.43-16.71s-13.67-28.37-14.72-50.81h115v-9.38c0-33.74-6.72-59.07-20.07-76.89s-29.51-26.75-49.43-26.75Zm158.46,0a23.86,23.86,0,0,0-16.71,6.68c-5,4.55-10.7,14-16.71,28.07V726.78h-23.41V926.71h26.09V822.42c0-14.55,1.36-28.54,4.68-41.46a34.26,34.26,0,0,1,10-17.38,22.47,22.47,0,0,1,15.38-6c6.14,0,12.24,2.46,18.72,7.36L1679,733.5c-9.12-7.28-18-10.7-26.77-10.7Zm319.59,0c-20.64,0-37.65,8.69-50.81,26.08s-20.07,43.48-20.07,78.23c0,34.47,7,60.59,20.07,78.22s29.33,26.08,49.47,26.08c16.62,0,30.91-6.18,42.79-18.72s19.1-31,22.06-54.82l-25.42-4c-1.88,17-6.33,29.31-13.37,37.45s-15.52,12-25.42,12c-12.63,0-23.37-5.88-31.43-18.06s-12-31.64-12-58.84c0-26.36,4.26-45.38,12.71-57.51s19.22-18.72,32.1-18.72q12.9,0,22.06,10c6.16,6.68,10.24,17.29,12.7,30.77l25.42-5.35c-3.06-21-9.82-36.95-20.73-47.48s-24.16-15.36-40.1-15.36Zm149.11,0c-20.9,0-38.53,8.6-52.16,26.75s-20.07,44.41-20.07,78.91c0,33.22,6.57,59.26,20.07,76.89s31,26.08,52.83,26.08c17.31,0,31.71-5.19,43.45-16s20.24-26.81,24.74-48.14L2163,862.56c-7.68,27.32-21.22,40.74-40.78,40.78-12.5,0-23.36-5.31-32.09-16.71s-13.65-28.37-14.72-50.81h115v-9.38c0-33.74-6.72-59.07-20.07-76.89s-29.51-26.75-49.45-26.75Zm154.46,0c-18.19,0-32.54,5.37-42.79,16.05s-15.38,24.41-15.38,41.46c0,9.91,1.56,18.28,5.34,26.09a47.14,47.14,0,0,0,16,18.72c6.81,4.64,20.52,10.74,40.78,17.37,14,4.52,23.09,8.37,26.75,11.36,5.3,4.39,8,10.14,8,18.06,0,9.16-3.17,16.8-9.37,22.72s-14.79,8.69-26.08,8.69-20.61-3.17-27.41-10-11.19-17.31-12.71-31.44l-26.08,5.35c5.88,42.9,27.24,64.21,64.19,64.19,19.7,0,35.41-5.58,46.81-17.37s17.37-27.71,17.37-46.82c0-10.31-1.81-19.25-5.34-26.74s-9-13-15.39-17.38-19.85-10.09-41.46-17.37c-15.71-5.5-25.57-9.52-28.76-12-5.33-4.24-8-10-8-17.38a24.17,24.17,0,0,1,8.68-18.72c5.54-4.81,14.12-7.36,25.42-7.36,19.94,0,31.09,11,33.42,32.76l25.42-4c-1.78-13.8-4.75-24.7-9.37-32.1a50.09,50.09,0,0,0-20.07-18.06c-8.58-4.38-18.59-6-30-6Zm-596.41,4,58.17,199.93h24.74L1820,726.8h-26.74l-34.11,122.37c-4.13,14.78-7.77,27.55-10,38.1-2.85-13.28-5.57-27.23-9.37-40.78L1706.33,726.8Zm163.8,0V926.73h26.09V726.8Zm-857.16,2.68c-20.69,0-37.34,9.28-50.82,27.41S914,801.3,914,835.79q0,49.85,20.07,76.22c13.39,17.61,31.21,26.74,52.82,26.74,17.16,0,31.18-5.86,42.8-16.71s19.62-26.81,24.07-48.14l-26.09-4c-7.59,27.32-21.39,40.74-40.78,40.78-12.38,0-22.78-5.31-31.43-16.71s-13.67-28.37-14.72-50.82h113.66l.66-9.37c0-33.74-6.84-59.74-20.07-77.56s-29.74-26.72-49.44-26.72ZM692,734.16l46.82,199.93h27.41L797,780.29l5.35,34.11,24.74,119.69h26.74l47.48-199.93H876.6L850.51,849.83l-8.68,38.77-8-38.77L811.08,734.16H784.34l-24.07,117-8,41.46-9.37-42.79L718.8,734.18H692Zm1664.21,2v9.38h25.42v66.86h10V745.55h25.42v-9.38Zm70.89,0v76.22h9.37V747.54l22.06,64.85h9.37L2490,748.86v63.53h10V736.17h-14l-18.06,53.49c-1.82,5.35-3.13,9.23-4,12l-4-11.36-18.06-54.16Zm-934.09,14c13,0,23.68,6.29,32.09,18.72,5.78,8.52,9.52,21.48,10.7,38.77h-86.25c.82-17.54,5.78-31.09,14-41.46S1481.38,750.21,1493,750.21Zm627.18,0c12.94,0,23.69,6.29,32.09,18.72,5.78,8.52,9.53,21.48,10.7,38.77h-86.25c.82-17.54,5.78-31.09,14-41.46S2108.54,750.21,2120.22,750.21ZM985.57,757.57c12.83,0,23.15,6.29,31.43,18.72,5.71,8.52,9.52,21.48,10.7,38.77H942.77c.82-17.54,5.16-31.75,13.38-42.13S974,757.57,985.57,757.57Zm165.82,0c11.59,0,21.46,6.44,29.42,18.72s11.36,31.26,11.36,57.51c0,25.57-3.77,44.64-12,57.52s-18.1,19.38-28.75,19.38a32.46,32.46,0,0,1-21.4-8c-6.46-5.39-11.19-13.12-14.72-23.41s-5.35-26.12-5.35-46.81c0-24.37,4.34-42.62,12.71-55.51s18.1-19.38,28.76-19.38Z"/><path class="cls-1" d="M317.26,545.6l-99.62,42.79,92.26,39.46,107-39.46ZM167.49,599.09l-3.34,192.56L309.9,855.84V655.92L167.49,599.09Zm299.54,0L335.32,649.24V837.78L467,784.29V599.09ZM624.17,0,523.86,42.79l92.95,39.46,107-39.46L624.17,0ZM485.09,56.85V249.41l124.36,36.12,4-175.19Zm278.15,10.7L645.56,117.7V306.93l117.68-53.49ZM153.11,271l-99.62,42.8,92.26,39.45,107-39.45L153.11,271ZM3.34,324.51,0,517.08l145.75,64.19V381.34Zm299.54,0L171.17,374.67V563.21l131.71-53.49Zm171.17-60.59-99.62,42.79,92.26,39.46,107-39.46-99.62-42.79ZM324.28,317.41,320.94,510l145.75,64.19V374.26Zm299.54,0L492.11,367.56V556.1l131.71-53.49ZM937.64,0,838,42.79l92.26,39.46,107-39.46ZM787.87,53.49l-3.34,192.56,145.75,64.19V110.34L787.87,53.49Zm299.54,0L955.7,103.64V292.18l131.71-53.49V53.49Z"/>
</svg>