<svg width="100%" height="100%" viewBox="0 0 2000 532" version="1.1" xmlns="http://www.w3.org/2000/svg" xmlns:xlink="http://www.w3.org/1999/xlink" xml:space="preserve" xmlns:serif="http://www.serif.com/" style="fill-rule:evenodd;clip-rule:evenodd;stroke-linejoin:round;stroke-miterlimit:2;"><g id="Angular-Logo" serif:id="Angular Logo"><path d="M11.025,95.738l238.748,-83.481l239.958,83.481l-37.909,310.936l-201.444,111.31l-201.847,-111.309l-37.506,-310.937Z" style="fill:none;fill-rule:nonzero;stroke:#fff;stroke-width:1px;"/><path d="M249.794,38.183l0,452.198l179.242,-99.084l34.006,-278.926l-213.248,-74.188Z" style="fill:none;fill-rule:nonzero;stroke:#fff;stroke-width:1px;"/><path d="M249.794,38.183l0,452.198l-179.242,-99.084l-34.006,-278.926l213.248,-74.188Z" style="fill:none;fill-rule:nonzero;stroke:#fff;stroke-width:1px;"/><path d="M206.577,269.361l43.265,-102.751l43.266,102.751c-68.428,0.156 -49.371,0.164 -86.531,0m43.266,-208.108l0,-0.002l-0.001,0.001l0,-0.001l0,0.002l-146.721,325.798l53.9,0l30.949,-73.501l123.744,0l30.949,73.501l53.901,0l-146.721,-325.798Z" style="fill:#fff;fill-rule:nonzero;"/><path d="M249.842,61.253l0,-0.001l0,105.359l43.265,102.75c-21.686,0.05 -34.579,0.084 -43.265,0.103l0,44.086l61.872,0l30.949,73.502l53.9,0l-146.721,-325.799Z" style="fill:#fff;fill-rule:nonzero;"/><path d="M526.886,169.348l0,204l24.593,0l0,-166.638l124.819,166.638l26.444,0l0,-204l-24.593,0l0,164.031l-124.554,-164.031l-26.709,0Z" style="fill:#fff;fill-rule:nonzero;"/><path d="M905.143,198.493l0,-21.878c-85.123,-22.275 -170.701,-3.238 -163.484,103.421c6.472,92.052 87.112,108.592 163.484,85.124l0,-85.124l-26.651,0l0,69.611c-50.517,11.933 -107.796,-2.865 -110.978,-69.611c-4.302,-94.579 63.246,-101.034 137.629,-81.543" style="fill:#fff;fill-rule:nonzero;"/><path d="M1088.9,169.348l0,134.576c-2.885,32.159 -23.232,49.472 -57.707,49.474c-34.475,-0.002 -54.822,-17.315 -57.707,-49.474l0,-134.576l-26.537,0l0,134.576c5.385,57.229 35.07,70.388 73.478,71.202l-0.001,0.002c47.101,2.619 88.787,-5.054 95.011,-71.204l0,-134.576l-26.537,0Z" style="fill:#fff;fill-rule:nonzero;"/><path d="M1189.86,351.665l0,-182.317l-26.029,0l0,204l133.09,0l0,-21.683l-107.061,0Z" style="fill:#fff;fill-rule:nonzero;"/><path d="M1408.74,142.678l-100.457,230.67l27.512,0l72.945,-178.453l37.896,92.71l-52.387,0l-7.441,20.81l68.335,0l26.542,64.933l27.512,0l-100.457,-230.67Z" style="fill:#fff;fill-rule:nonzero;"/><path d="M1625.74,276.884c37.366,-12.031 56.936,-30.456 56.79,-59.308c-0.318,-34.429 -21.201,-48.906 -57.706,-48.229l-87.474,0l0,204.001l27.25,0l0,-182.335l60.224,0c23.128,1.603 29.082,12.136 29.082,27.936c0,19.633 -10.014,31.433 -31.289,38.993c-8.132,2.733 -16.865,4.97 -26.417,6.577l0,16.716l64.804,92.113l35.265,0l-70.529,-96.464Z" style="fill:#fff;fill-rule:nonzero;"/><path d="M1725.23,351.177l0,22.171c41.947,-1.205 70.47,-15.839 69.325,-60.148l0,-143.852l-26.512,0l0,147.077c1.254,21.496 -14.152,34.09 -42.813,34.752" style="fill:#fff;fill-rule:nonzero;"/><path d="M1982.8,176.089l0,24.192c-61.537,-20.256 -121.847,-12.946 -122.066,24.548c0.688,26.937 13.893,35.33 59.184,33.627c51.37,-2.166 70.224,20.698 69.607,58.511c-1.355,58.963 -59.585,67.561 -147.622,48.954l0,-24.743c55.646,16.678 122.375,20.196 120.72,-23.878c0.222,-26.886 -10.76,-37.659 -60.864,-35.305c-45.659,-0.651 -69.351,-18.93 -66.918,-58.175c4.303,-56.641 60.232,-67.56 147.959,-47.731" style="fill:#fff;fill-rule:nonzero;"/><path d="M1562.95,484.251c-5.786,0 -11.047,-2.804 -11.047,-13.91c0,-9.541 4.077,-13.91 11.047,-13.91c6.312,0 8.943,6.228 8.943,13.91c0,7.682 -2.894,13.91 -8.943,13.91m1.644,-33.051c-6.278,0 -10.301,2.443 -12.691,6.26l0,-18.753l-5.786,0l0,49.316l5.786,0l0,-5.266c2.362,4.157 6.363,6.932 12.691,6.713c7.573,-0.263 13.743,-8.813 13.743,-18.872c0,-11.244 -6.153,-19.398 -13.743,-19.398" style="fill:#fff;fill-rule:nonzero;"/><path d="M1606.65,452.931l-9.331,28.796l-9.652,-28.796l-7.319,0c0,0 12.958,35.919 13.559,37.603c-0.323,1.25 -0.617,1.806 -1.494,4.143c-1.668,4.443 -3.767,5.092 -8.285,3.298l0,5.791c6.539,1.068 10.096,0.561 13.031,-7.078c1.387,-3.612 16.811,-43.757 16.811,-43.757l-7.32,0Z" style="fill:#fff;fill-rule:nonzero;"/><path d="M1721.75,443.718l-39.813,0l0.001,11.712l28.334,0c-1.382,16.424 -15.048,23.428 -27.946,23.428c-16.501,0 -30.901,-12.983 -30.901,-31.181c0,-17.728 13.727,-31.381 30.938,-31.381c13.278,0 21.103,8.465 21.103,8.465l8.201,-8.493c0,0 -10.526,-11.718 -29.724,-11.718c-24.445,0 -43.357,20.632 -43.357,42.917c0,21.837 17.79,43.13 43.981,43.13c23.034,0 39.896,-15.779 39.896,-39.114c0,-4.923 -0.715,-7.768 -0.715,-7.768l0.001,0.003Z" style="fill:#fff;fill-rule:nonzero;"/><path d="M1755.61,446.099c7.964,0 15.512,6.439 15.512,16.815c0,10.155 -7.515,16.778 -15.548,16.778c-8.827,0 -15.79,-7.07 -15.79,-16.859c0,-9.58 6.877,-16.734 15.826,-16.734m-0.161,-10.863c-16.196,0 -27.802,12.662 -27.802,27.429c0,14.985 11.258,27.882 27.992,27.882c15.15,0 27.561,-11.579 27.561,-27.56c0,-18.318 -14.437,-27.751 -27.751,-27.751" style="fill:#fff;fill-rule:nonzero;"/><path d="M1815.73,446.099c7.964,0 15.512,6.439 15.512,16.815c0,10.155 -7.515,16.778 -15.549,16.778c-8.826,0 -15.789,-7.07 -15.789,-16.859c0,-9.58 6.877,-16.734 15.826,-16.734m-0.161,-10.863c-16.196,0 -27.803,12.662 -27.803,27.429c0,14.985 11.258,27.882 27.993,27.882c15.15,0 27.561,-11.579 27.561,-27.56c0,-18.318 -14.437,-27.751 -27.751,-27.751" style="fill:#fff;fill-rule:nonzero;"/><path d="M1875.95,446.106c7.288,0 14.772,6.223 14.772,16.851c0,10.803 -7.468,16.756 -14.933,16.756c-7.925,0 -15.3,-6.435 -15.3,-16.653c0,-10.618 7.659,-16.954 15.461,-16.954Zm-1.076,-10.841c-14.866,0 -26.551,13.02 -26.551,27.634c0,16.646 13.547,27.685 26.295,27.685c7.882,0 12.073,-3.129 15.167,-6.72l0,5.453c0,9.542 -5.793,15.256 -14.538,15.256c-8.447,0 -12.684,-6.282 -14.157,-9.846l-10.629,4.443c3.771,7.973 11.361,16.288 24.874,16.288c14.781,0 26.046,-9.31 26.046,-28.835l0,-50.379l-11.595,0l0,5.369c-3.566,-3.843 -8.442,-6.347 -14.912,-6.347l0,-0.001Z" style="fill:#fff;fill-rule:nonzero;"/><path d="M1952.4,445.835c5.053,0 8.689,2.687 10.234,5.907l-24.765,10.351c-1.067,-8.013 6.525,-16.258 14.531,-16.258m-0.483,-10.636c-14.023,0 -25.797,11.156 -25.797,27.619c0,17.42 13.124,27.751 27.144,27.751c11.701,0 18.883,-6.402 23.168,-12.137l-9.56,-6.361c-2.481,3.85 -6.628,7.613 -13.55,7.613c-7.774,0 -11.349,-4.258 -13.564,-8.382l37.083,-15.387l-1.925,-4.509c-3.583,-8.831 -11.939,-16.206 -22.998,-16.206l-0.001,-0.001Z" style="fill:#fff;fill-rule:nonzero;"/><rect x="1909.12" y="407.41" width="11.359" height="81.517" style="fill:#fff;"/></g></svg>