<svg viewBox="0 0 349 514" version="1.1" xmlns="http://www.w3.org/2000/svg" style="fill-rule:evenodd;clip-rule:evenodd;stroke-miterlimit:10;"><path d="M174.43,0.5c-96.05,0 -173.93,77.35 -173.93,172.78c0,48.82 47.89,136.27 47.89,136.27l119.61,202.95l124.84,-200.58c0,0 55.44,-83.44 55.44,-138.64c0.02,-95.43 -77.85,-172.78 -173.85,-172.78Zm-0.82,267.94c-54.624,-0.005 -99.57,-44.956 -99.57,-99.58c0,-54.628 44.952,-99.58 99.58,-99.58c54.613,0 99.558,44.927 99.58,99.54c0,0.023 0,0.047 0,0.07c0,54.612 -44.938,99.55 -99.55,99.55c-0.013,0 -0.027,0 -0.04,0Z" style="fill:#fff;fill-rule:nonzero;stroke:#222327;stroke-width:1px;"/></svg>