<svg xmlns="http://www.w3.org/2000/svg" viewBox="0 0 2495.11 2499.66"><defs><style>.cls-1{fill:#fff;}</style></defs><path id="path821" class="cls-1" d="M1006.71,2484.53C788,2439.8,584.29,2337.92,425.26,2196.29c-410-364-538-936.78-320.54-1447.41C158.14,623.4,245.11,496.67,352,386.1l94.42-96.91,6.21,569c6.21,545.42,7.46,572.76,33.55,641.09,52.18,137.91,106.84,224.87,202.51,319.3,246,244.75,606.29,305.63,913.17,155.3,288.24-141.64,469.63-451,448.51-764.08-13.67-210-84.48-364-237.3-516.85-115.55-115.54-251-191.33-397.57-222.39-150.33-31.06-142.88-36-142.88,90.7V670.61l82,14.91C1672.64,743.91,1883.85,1057,1818,1372.57c-21.12,100.64-68.33,190.09-144.12,272.09-115.55,124.24-278.3,183.88-419.94,183.88-234.81,0-429.87-134.18-525.53-330.48,0,0-24.85-55.91-32.31-90.7-47.21-205-17.39-634.87-17.39-634.87L675,142.59,712.25,124c19.88-11.18,39.76-18.64,43.49-18.64s7.45,289.49,9.94,643.57c0,0-44.73,463.42,11.18,641.09,7.45,26.09,23.6,69.57,23.6,69.57,48.46,99.39,126.73,187.6,228.61,236.06,77,36,116.78,53.42,231.09,53.42,74.54,0,140.39-23.6,217.42-58.39,89.45-41,192.57-150.33,231.09-251,104.36-275.81-41-571.51-323-654.75-115.54-33.54-113.06-36-113.06,89.46V983.7l54.67,14.91c198.78,53.42,259.66,320.54,103.12,457.2-54.67,48.46-104.37,69.58-191.33,69.58-93.19,0-182.64-55.91-228.61-142.88-27.33-52.18-29.82-100.63-29.82-123,0-207.48-5-582.69-5-582.69L971.92,34.5,1000.49,27c16.15-3.72,79.52-13.66,141.64-21.12,210-27.33,520.57,42.24,729.29,161.51,284.51,162.76,499.45,442.3,588.9,765.33,31.06,110.57,34.79,144.12,34.79,321.78s-3.73,211.21-33.54,320.54c-121.76,439.82-432.36,752.9-875.9,887.08-93.18,28.58-136.67,33.55-301.91,37.28-132.94,1.24-218.66-2.49-277.06-14.91Z"/></svg>