<svg xmlns="http://www.w3.org/2000/svg" viewBox="0 0 2498.76 873"><defs><style>.cls-1{fill:#fff;}</style></defs><path class="cls-1" d="M294.61,0H431.26V632.53c-70.1,13.31-121.57,18.64-177.47,18.64C87,651.16,0,575.75,0,431.1,0,291.78,92.29,201.28,235.15,201.28c22.18,0,39,1.77,59.46,7.09Zm0,318.4c-16-5.32-29.28-7.1-46.14-7.1-69.22,0-109.15,42.6-109.15,117.13,0,72.77,38.16,112.7,108.26,112.7,15.08,0,27.51-.88,47-3.54Z"/><path class="cls-1" d="M648.65,211V527.81c0,109.15-8,161.51-31.94,206.76-22.19,43.49-51.48,71-111.81,101.17L378,775.4C438.35,747,467.63,722.16,486.26,684c19.53-39,25.74-84.3,25.74-203.2V211ZM512,.73H648.65v140.2H512ZM731.19,242.09c60.35-28.39,118-40.81,181-40.81,70.1,0,116.24,18.63,136.65,55,11.53,20.41,15.08,47,15.08,103.83V637.85c-61.23,8.87-138.43,15.09-195.21,15.09-114.47,0-166-40-166-128.68,0-95.84,68.33-140.2,236-154.41V339.68c0-24.84-12.42-33.71-47-33.71-50.58,0-107.37,14.2-160.62,41.71V242.09Zm213.86,217.4c-90.51,8.88-119.8,23.07-119.8,58.57,0,26.61,16.87,39,54.13,39,20.42,0,39-1.76,65.67-6.2Zm185.46-227.16c80.74-21.3,147.3-31.05,214.74-31.05,70.1,0,120.68,16,150.86,47,28.39,29.28,37.26,61.22,37.26,129.56v268H1396.72V383.19c0-52.36-17.75-71.89-66.55-71.89-18.64,0-35.49,1.78-63,9.76V645.84H1130.51Zm456,488c47.93,24.85,95.84,36.38,146.42,36.38,89.61,0,127.77-36.38,127.77-123.34v-2.66c-26.61,13.3-53.24,18.63-88.73,18.63-119.8,0-196.12-79-196.12-204.08,0-155.3,112.7-243.15,312.35-243.15,58.57,0,112.7,6.21,178.36,19.52l-46.79,98.57c-36.38-7.1-2.91-.95-30.41-3.61v14.2l1.77,57.67L1992,463c.89,18.63.89,37.27,1.78,55.9v37.28c0,117.13-9.76,172.14-39,217.4-42.6,66.56-116.26,99.38-221,99.38-53.25,0-99.37-8-147.3-26.62v-126ZM1858,312.19h-14.19c-26.62-.89-57.67,6.21-79,19.51-32.82,18.64-49.7,52.37-49.7,100.28,0,68.33,33.74,107.37,94.07,107.37,18.64,0,33.73-3.55,51.46-8.87v-47c0-16-.88-33.74-.88-52.36l-.88-63-.89-45.26V312.19ZM2278.7,199.5c136.65,0,220.06,86.08,220.06,225.39,0,142.87-87,232.49-225.39,232.49-136.66,0-221-86.08-221-224.5,0-143.77,87-233.38,226.29-233.38ZM2276,547.34c52.36,0,83.42-43.48,83.42-118.91,0-74.53-30.17-118.9-82.52-118.9-54.13,0-85.2,43.49-85.2,118.9s31.07,118.91,84.3,118.91Z"/></svg>