<svg viewBox="0 0 2500 704" version="1.1" xmlns="http://www.w3.org/2000/svg" style="fill-rule:evenodd;clip-rule:evenodd;stroke-linejoin:round;stroke-miterlimit:2;"><path id="SVGID_1_" d="M177.675,489.739c-22.446,0 -42.852,-18.365 -42.852,-40.811c0,-22.447 18.365,-40.812 42.852,-40.812c24.487,0 42.853,18.365 42.853,40.812c0,22.446 -20.406,40.811 -42.853,40.811Zm526.47,-222.423c-4.081,-32.649 -24.487,-59.177 -51.015,-79.583l-10.202,-8.162l-8.163,10.203c-16.324,18.365 -22.446,51.014 -20.406,75.501c2.041,18.366 8.163,36.731 18.366,51.015c-8.163,4.081 -18.366,8.162 -26.528,12.243c-18.365,6.122 -36.73,8.163 -55.096,8.163l-528.51,0l-2.04,12.243c-4.081,38.771 2.04,79.583 18.365,116.313l8.162,14.284l0,2.041c48.974,81.623 136.719,118.353 232.626,118.353c183.653,0 334.655,-79.582 406.076,-250.991c46.933,2.041 93.866,-10.203 116.313,-55.096l6.121,-10.202l-10.202,-6.122c-26.528,-16.325 -63.258,-18.365 -93.867,-10.203Zm-263.235,-32.649l-79.582,0l0,79.582l79.582,0l0,-79.582Zm0,-99.989l-79.582,0l0,79.583l79.582,0l0,-79.583Zm0,-102.029l-79.582,0l0,79.583l79.582,0l0,-79.583Zm97.948,202.018l-79.583,0l0,79.582l79.583,0l0,-79.582Zm-295.884,0l-79.583,0l0,79.582l79.583,0l0,-79.582Zm99.988,0l-79.582,0l0,79.582l79.582,0l0,-79.582Zm-197.936,0l-79.583,0l0,79.582l79.583,0l0,-79.582Zm197.936,-99.989l-79.582,0l0,79.583l79.582,0l0,-79.583Zm-99.988,0l-79.583,0l0,79.583l79.583,0l0,-79.583Z" style="fill:#fff;fill-rule:nonzero;"/><path id="docker_2_" d="M2079.5,440.765c34.69,-30.608 69.379,-59.177 104.069,-89.785c12.244,-10.203 24.487,-20.406 36.731,-32.65c-10.203,-12.243 -24.487,-20.405 -38.771,-26.527c-26.528,-10.203 -53.055,-6.122 -79.583,8.162c-32.649,18.365 -46.933,48.974 -44.893,85.705c0,14.284 4.081,28.568 12.244,40.811c6.121,6.122 8.162,10.203 10.203,14.284m40.811,28.568c16.325,6.122 36.731,6.122 55.096,2.041c8.162,-4.081 32.649,-14.284 40.811,-12.244l4.082,0c6.121,2.041 10.203,6.122 12.243,12.244c6.122,12.243 4.081,24.487 -8.162,30.609l-4.081,2.04c-44.893,26.528 -91.826,22.447 -136.719,-2.04c-20.406,-12.244 -36.731,-28.569 -48.974,-48.974l-2.041,-4.081c-28.568,-48.974 -24.487,-102.029 8.163,-148.963c10.203,-16.324 26.527,-28.568 42.852,-38.771l6.122,-4.081c42.852,-24.487 87.744,-22.446 130.597,-2.041c22.446,12.244 42.852,28.569 55.095,51.015l2.041,4.081c10.203,16.325 -2.041,30.609 -16.325,40.812l-42.852,36.73c-36.73,28.568 -67.339,55.096 -97.948,81.623Zm332.615,-224.463l4.081,0c14.284,0 24.487,10.202 24.487,24.487c0,20.405 -18.365,24.486 -34.69,24.486c-20.406,0 -40.812,12.244 -55.096,26.528c-18.365,18.365 -26.527,40.812 -26.527,65.299l0,114.272c0,12.244 -8.163,24.487 -22.447,24.487l-4.081,0c-14.284,0 -22.446,-10.203 -22.446,-24.487l0,-120.394c0,-46.934 22.446,-83.664 59.177,-110.191c26.527,-16.325 51.014,-24.487 77.542,-24.487Zm-583.606,79.582l55.096,-55.095c6.121,-4.082 24.487,-26.528 32.649,-26.528l8.162,0c10.203,2.041 18.365,8.162 18.365,20.406l0,4.081c0,8.162 -10.202,16.325 -14.284,22.446c-10.203,12.244 -22.446,22.447 -32.649,34.69l-57.136,57.136l102.029,102.029c2.04,4.082 4.081,6.122 4.081,10.203l0,6.122c-2.041,10.203 -10.203,18.365 -20.406,18.365l-4.081,0c-8.162,0 -16.325,-8.162 -22.446,-14.284c-10.203,-10.203 -22.447,-20.406 -32.65,-32.649l-36.73,-34.69l0,57.136c0,12.244 -8.162,24.487 -22.446,24.487l-4.082,0c-14.284,0 -22.446,-10.203 -22.446,-24.487l0,-314.249c0,-12.243 8.162,-22.446 22.446,-22.446l4.082,0c14.284,0 22.446,10.203 22.446,22.446l0,144.881Zm-151.003,-30.609c-6.122,-4.081 -20.406,-4.081 -28.568,-4.081c-38.771,-2.04 -67.339,20.406 -83.664,55.096c-6.122,12.243 -8.162,24.487 -8.162,38.771c0,40.812 20.406,69.38 57.136,85.704c12.244,6.122 30.609,8.163 44.893,8.163c12.243,0 30.609,-8.163 40.811,-12.244l10.203,0c10.203,2.041 18.366,8.162 18.366,20.406l0,4.081c0,28.568 -53.056,34.69 -71.421,36.731c-69.379,4.081 -122.435,-34.69 -142.84,-99.989c-4.081,-12.243 -4.081,-22.446 -4.081,-34.69l0,-10.203c0,-51.014 24.486,-91.826 69.379,-116.313c20.406,-12.243 42.852,-18.365 67.339,-18.365l10.203,0c24.487,0 48.974,6.122 69.38,20.406l4.081,4.081c2.041,4.081 4.081,8.162 4.081,12.244l0,4.081c0,12.243 -8.162,18.365 -20.406,20.406l-2.04,0c-14.284,-4.082 -30.609,-12.244 -34.69,-14.285Zm-428.522,87.745c0,34.69 18.366,61.218 46.934,79.583c14.284,8.162 30.608,12.243 46.933,12.243c34.69,0 61.217,-18.365 79.583,-46.933c8.162,-14.284 12.243,-30.609 12.243,-46.933c0,-32.649 -16.325,-59.177 -42.852,-77.542c-14.284,-10.203 -32.649,-14.284 -48.974,-14.284c-38.771,0 -67.339,20.406 -83.664,55.095c-10.203,14.284 -10.203,26.528 -10.203,38.771Zm85.705,-138.759l6.121,0c55.096,0 95.908,26.528 122.435,73.461c10.203,18.365 16.325,38.771 16.325,61.217l0,10.203c0,51.015 -24.487,91.826 -69.38,116.313c-20.406,12.244 -42.852,18.365 -67.339,18.365l-10.203,0c-51.014,0 -91.826,-24.487 -116.313,-69.379c-12.243,-20.406 -18.365,-42.852 -18.365,-67.339l0,-10.203c0,-51.015 24.487,-91.826 69.38,-116.313c22.446,-10.203 42.852,-16.325 67.339,-16.325Zm-395.873,138.759c0,36.731 18.365,65.299 51.015,81.624c12.243,6.121 26.527,10.202 42.852,10.202c36.73,0 63.258,-16.324 81.623,-46.933c8.162,-14.284 12.244,-30.609 12.244,-46.933c0,-32.649 -14.285,-57.136 -40.812,-75.502c-16.325,-10.203 -32.649,-16.324 -53.055,-16.324c-38.771,0 -67.339,20.406 -83.664,55.095c-6.122,14.284 -10.203,26.528 -10.203,38.771Zm187.734,-104.069l0,-99.989c0,-12.243 8.162,-24.487 22.446,-24.487l4.081,0c14.284,0 22.446,10.203 22.446,24.487l0,210.18c0,51.015 -24.487,91.826 -69.379,116.313c-20.406,12.244 -42.852,18.365 -67.339,18.365l-10.203,0c-51.015,0 -91.826,-24.487 -116.313,-69.379c-12.244,-20.406 -18.366,-42.852 -18.366,-67.339l0,-10.203c0,-51.015 24.487,-91.826 69.38,-116.313c20.406,-12.244 42.852,-18.366 67.339,-18.366l10.203,0c30.609,2.041 61.218,14.284 85.705,36.731Z" style="fill:#fff;fill-rule:nonzero;"/></svg>