<svg xmlns="http://www.w3.org/2000/svg" viewBox="0 0 448.01 512"><defs><style>.cls-1{fill:#fff;}</style></defs><path class="cls-1" d="M210.73,317c-44.07,0-79.78,36.2-79.78,80.8s35.71,80.8,79.78,80.8,79.77-36.19,79.77-80.8S254.79,317,210.73,317Z"/><path class="cls-1" d="M383.62,176.16a104.63,104.63,0,0,1,2.56,23C386,247.87,354,288.8,310.06,301.54A140.34,140.34,0,0,1,289.32,512c65.86-20.54,120.35-70.66,144.7-131.36C467.78,296.64,436.3,233.47,383.62,176.16Z"/><path class="cls-1" d="M281,137.5c-33.6,0-61.15,27.59-61.15,61.8s27.39,61.79,61,61.79S342,233.34,342,199.3,314.57,137.5,281,137.5Z"/><path class="cls-1" d="M199.24,0C213,145.92,68,92.9,14.25,227.49c-35.87,90.14-3.49,201.57,91.29,260a139.87,139.87,0,0,1-32.25-89.67c0-71.29,52.83-130,121.09-138.11a107.62,107.62,0,0,1-18.6-60.41c0-58.88,47.08-106.4,105.22-106.4a107.55,107.55,0,0,1,14.08.92C260.71,63.78,226.34,33.28,199.24,0Z"/></svg>