<svg xmlns="http://www.w3.org/2000/svg" viewBox="0 0 2376.24 1174.18"><defs><style>.cls-1{fill:#fff;}</style></defs><path class="cls-1" d="M278.94,908s-44.8,26.1,32,34.9c93,10.6,140.6,9.1,243.1-10.3a422.07,422.07,0,0,0,64.7,31.5c-230,98.6-520.4-5.6-339.8-56.1Zm-28.1-128.5s-50.3,37.2,26.5,45.2c99.4,10.3,177.9,11.1,313.7-15a139.39,139.39,0,0,0,48.3,29.5C361.54,920.4,52,845.5,250.84,779.5Z"/><path class="cls-1" d="M487.64,561.4c56.7,65.2-14.9,123.9-14.9,123.9s143.8-74.2,77.8-167.2c-61.7-86.7-109-129.7,147.1-278.2,0-.1-402,100.3-210,321.5Z"/><path class="cls-1" d="M791.64,1003.1s33.2,27.4-36.6,48.5c-132.7,40.2-552.2,52.3-668.8,1.6-41.9-18.2,36.7-43.5,61.4-48.8,25.8-5.6,40.5-4.6,40.5-4.6-46.6-32.8-301.1,64.4-129.3,92.3C527.54,1168.1,913.14,1058,791.64,1003.1ZM300.54,646.3s-213.4,50.7-75.6,69.1c58.2,7.8,174.2,6,282.3-3.1,88.3-7.4,177-23.3,177-23.3s-31.1,13.4-53.7,28.7c-216.7,57-635.4,30.5-514.8-27.8,101.9-49.2,184.8-43.6,184.8-43.6Zm382.8,214c220.3-114.4,118.4-224.4,47.3-209.6-17.4,3.6-25.2,6.8-25.2,6.8a40.48,40.48,0,0,1,18.8-14.5c140.7-49.4,248.8,145.8-45.4,223.2.1-.2,3.5-3.2,4.5-5.9Z"/><path class="cls-1" d="M550.54,0s122,122.1-115.7,309.7c-190.6,150.6-43.5,236.4-.1,334.5-111.3-100.4-192.9-188.8-138.2-271C376.94,252.4,599.74,193.8,550.54,0Z"/><path class="cls-1" d="M322.14,1170.5c211.4,13.5,536.2-7.5,543.9-107.6,0,0-14.8,37.9-174.7,68-180.5,34-403.1,30-535.1,8.2C156.14,1139.2,183.24,1161.5,322.14,1170.5Zm2015.5-472.8h-6.4v-3.6h17.3v3.6h-6.4v18h-4.5Zm34.6.9-6.5,17.1h-2.9l-6.4-17.1h-.1v17.1H2352V694.1h6.2l5.9,15.3,5.9-15.3h6.2v21.6h-4.1Z"/><path class="cls-1" d="M1871.44,694.1h182.3v43.5h-124.3V851.5H2033V893h-103.6v126.8h128.5v43.1h-186.5Zm265.3,0H2319v43.5h-124.3V851.5h103.6V893h-103.6v126.8h128.5v43.1h-186.5Z"/><path class="cls-1" d="M1235.84,999c-19.9,17.3-41,27-59.9,27-27,0-41.6-16.2-41.6-42.1,0-28.1,15.7-48.6,78.3-48.6h23.2Zm55,62.1V868.9c0-49.1-28-81.5-95.5-81.5-39.4,0-73.9,9.7-102,22.1l8.1,34c22.1-8.1,50.7-15.7,78.8-15.7,38.9,0,55.6,15.7,55.6,48.1v24.3h-19.4c-94.5,0-137.1,36.6-137.1,91.8,0,47.5,28.1,74.5,81,74.5,34,0,59.4-14,83.1-34.6l4.3,29.2Zm183.7,0h-68.6l-82.6-268.8h59.9l51.3,165.2,11.4,49.6c25.9-71.8,44.2-144.7,53.4-214.8h58.3c-15.6,88.5-43.7,185.6-83.1,268.8Zm263.4-62.1c-20,17.3-41.1,27-60,27-27,0-41.6-16.2-41.6-42.1,0-28.1,15.7-48.6,78.3-48.6h23.2Zm55,62.1V868.9c0-49.1-28.1-81.5-95.6-81.5-39.4,0-74,9.7-102.1,22.1l8.1,34c22.1-8.1,50.8-15.7,78.8-15.7,38.9,0,55.6,15.7,55.6,48.1v24.3h-19.4c-94.5,0-137.1,36.6-137.1,91.8,0,47.5,28.1,74.5,81,74.5,34,0,59.4-14,83.2-34.6l4.3,29.2Zm-774,45.7c-15.7,22.9-41,41.1-68.8,51.3l-27.2-32c21.1-10.9,39.2-28.3,47.6-44.6,7.3-14.5,10.3-33.2,10.3-77.8v-307h58.5V999.4c0,59.7-4.7,83.8-20.4,107.4Z"/></svg>