<svg xmlns="http://www.w3.org/2000/svg" viewBox="0 0 510.16 115.94">
  <defs>
    <style>.cls-1{fill:#fff;fill-rule:evenodd;}</style>
  </defs>
  <path class="cls-1" d="M488.74,8.57l21.42.12L467.08,67.05c-1.05,1.42-2.66,3-3.47,4.86-2.06,4.79-4.17,15.29-4.17,15.29l-19.6.09s3.05-10.94,2.92-16.77c-.11-5.09-2.71-10.18-4.17-15.28S435.12,40,435.12,40h20.15l2.78,11.12,30.69-42.5"/>
  <path class="cls-1" d="M448.18,20c3.95,2.38,6.38,15.53,6.38,15.53s-20.69.3-31.95.3h-9.72L401.08,87.2H383s11.24-55.88,13.9-66c.86-3.28,5.89-2.71,14.39-2.71h13.57c8.76,0,19-1.12,23.31,1.47"/>
  <path class="cls-1" d="M364.08,45a10.84,10.84,0,0,0-1.91-7.12c-2.11-3.26-4.07-4-9.62-4.19-15.7-.5-15.39,11.14-15.39,11.14l26.92.17Zm17-13.32C383.4,40,379,59.46,379,59.46s-22.9-.38-35.44,0c-3.9.12-8.56-.42-9.72,1.39-1.64,2.54.59,6.46,2.48,8.11,2.18,1.9,6.42,2.12,7.94,2.31,10.18,1.3,31.48.34,31.48.34L372.07,88s-30.1,1.51-45.16-2.09a15.33,15.33,0,0,1-7.64-4.17,23.71,23.71,0,0,1-1.45-2,18.33,18.33,0,0,1-2-3.59C312.35,67,316.19,49.41,320,40c.44-1.09,1-2.48,1.56-3.65.73-1.47,1.34-3.12,1.91-4,.39-.6.87-1,1.28-1.56a22.6,22.6,0,0,1,1.5-1.91,28.85,28.85,0,0,1,4.87-4.17c6.27-4.69,17.62-8.34,31.26-6.95,5.14.53,12.89,2.37,16.68,7.65,1,1.41,1.51,4.21,2.08,6.25Z"/>
  <path class="cls-1" d="M298.25,18.41l17.51-.1S306,64.62,301,87.2H280.88c-14.08,0-26.63,1.74-32-8.34C243.74,69.07,248.68,53,251,42c1.64-7.74,5.1-23.56,5.1-23.56l18.14-.17S269.12,42.94,267,55.24c-.76,4.4-2.34,8.55-.69,11.81,1.56,3.1,3.75,3.32,10.42,3.47,2.11,0,9,0,9,0l12.51-52.11"/>
  <path class="cls-1" d="M216.26,51.76c1.84-6.51,4.51-13.58,4.17-19.45-.37-6.28-5.63-12-9-13.2-10.23-3.61-19.81,1.44-23.62,5.56-4.93,5.33-6.6,11.57-8.34,20.15-1.3,6.37-2.36,13.09,0,18.06,4.18,8.78,17.22,6.86,31.26,6.95,2.09-5.59,3.81-11.86,5.56-18.07Zm24.32-25.7c2,14.54-5.67,30.6-11,44.57,5.39.48,10.11-.08,10.45.32s-3.61,16.67-5,16.71c-4.28.11-18.46.23-24.38.23-19.29,0-37.34,1.26-46.54-8.33-3.74-3.9-6.33-10.59-6.95-15.29-1.05-7.85.26-16.5,2.08-23.62a71.58,71.58,0,0,1,7-18.07C174.35,8.43,188.45-2.08,212.09.35a44,44,0,0,1,15.29,4.86c.28.17,1.28,1,1.51,1.1,5.56,3.54,10.62,12,11.69,19.75Z"/>
  <path class="cls-1" d="M155.21,18.5c-1.16,5.31-2.33,11.34-3.56,16.59H132.19c1.51-5.82,2.67-11.61,4.17-16.68,6.23,0,12,.09,18.85.09"/>
  <path class="cls-1" d="M131.5,40h18.76c-2.45,13.58-7.31,35.48-11.12,50.72-2.38,9.54-4,16.5-10.42,21.54-.58.45-.91.24-1.39.69-1.19,1.14-6.68,2.45-9.73,2.78-4.94.54-10.54.07-16.62-.05,1.6-5.82,3.4-12.8,4.81-18,14.82,1.79,15.2-12.22,18.07-25.71,1.66-7.79,6.69-28.83,7.64-32"/>
  <path class="cls-1" d="M87.73,75.39l-.4,1C80.47,89.77,68.34,98,51,98.31a50.85,50.85,0,0,1-20.84-4.16,53.86,53.86,0,0,1-25-23.63C-2,56.65-3.29,37.35,11.61,22.93c.23,0-1.81,3.13-1.58,3.13l-.41,1.33C-1.11,61,32,89.8,64.11,86.5c7.72-.79,17.57-5,23.62-11.11"/>
  <path class="cls-1" d="M68.27,61.49a30.72,30.72,0,0,0,21.54-9c-4.37,11.11-17,18.25-34,16C41.54,66.53,28,52.22,26.59,37.87c-1-10.44,2.62-16.68,8.61-24.24a25.38,25.38,0,0,0-3.05,8.95c-2.28,22.59,18,38.79,36.12,38.91"/>
  <path class="cls-1" d="M89,33.43c-1.26,2.89-8.5,8.34-11.69,9-12.66,2.69-20.77-3.31-25-10.14a30.31,30.31,0,0,1-2-4.52c-1.65-5.6-.89-14.07,4-18.45a23.07,23.07,0,0,0-.92,12.16,26.93,26.93,0,0,0,3.35,7.31c2.62,3.81,4.28,4.74,7.64,6.76a20.2,20.2,0,0,0,3.85,1.84c3.18.94,9.92,3.41,20.77-4"/>
</svg>
