<svg width="100%" height="100%" viewBox="0 0 2500 1074" version="1.1" xmlns="http://www.w3.org/2000/svg" xml:space="preserve" style="fill-rule:evenodd;clip-rule:evenodd;stroke-linejoin:round;stroke-miterlimit:2;">
  <path id="c" d="M0.84,4.843l2498.91,0l0,1069.16l-2498.91,0" style="fill:none;"/>
  <path d="M2393.04,394.744c0,-80.033 12.312,-127.23 12.312,-213.414c0,-133.391 -49.258,-176.487 -158.015,-176.487l-80.033,0l0,94.395l24.624,0c55.409,0 67.721,18.472 67.721,86.193c0,63.61 -6.161,127.23 -6.161,201.111c0,94.395 30.785,131.331 92.344,145.693l0,6.161c-61.559,14.363 -92.344,51.308 -92.344,145.703c0,73.872 6.161,133.391 6.161,201.111c0,69.771 -14.362,88.234 -67.721,88.234l0,2.051l-24.624,0l0,98.505l80.033,0c108.757,0 158.015,-43.097 158.015,-176.478c0,-88.243 -12.312,-133.391 -12.312,-213.423c0,-43.097 26.674,-88.244 106.706,-92.345l0,-106.716c-80.032,-2.05 -106.706,-47.197 -106.706,-90.294m-909.093,125.179c-63.619,-24.623 -121.078,-38.986 -121.078,-80.032c0,-30.775 24.624,-49.248 69.771,-49.248c45.147,0 86.193,18.473 131.34,51.308l82.083,-108.767c-51.308,-38.986 -121.079,-80.032 -215.474,-80.032c-139.542,0 -233.946,80.032 -233.946,192.9c0,100.555 88.243,151.854 162.125,180.588c63.61,24.624 125.179,45.147 125.179,86.184c0,30.784 -24.633,51.307 -80.032,51.307c-51.308,0 -102.606,-20.523 -158.015,-63.619l-80.032,119.028c61.559,51.298 155.954,86.184 233.936,86.184c164.176,0 252.41,-86.184 252.41,-199.052c0,-112.867 -88.234,-160.065 -168.267,-186.749m496.608,0c-61.559,-24.623 -119.018,-38.986 -119.018,-80.032c0,-30.775 24.623,-49.248 69.771,-49.248c45.147,0 86.193,18.473 131.34,51.308l82.083,-108.767c-51.308,-38.986 -121.079,-80.032 -215.474,-80.032c-139.551,0 -233.946,80.032 -233.946,192.9c0,100.555 88.243,151.854 162.115,180.588c63.62,24.624 125.18,45.147 125.18,86.184c0,30.784 -24.624,51.307 -80.033,51.307c-51.298,0 -102.606,-20.523 -158.005,-63.619l-82.092,119.028c61.569,51.298 155.964,86.184 233.946,86.184c164.166,0 252.41,-86.184 252.41,-199.052c0,-112.867 -88.244,-160.065 -168.277,-186.749m-1218.96,-10.261c12.312,-82.083 61.559,-121.069 119.018,-121.069c73.882,0 102.616,51.298 102.616,121.069l-221.634,0Zm377.589,36.945c2.05,-166.225 -88.244,-295.506 -260.621,-295.506c-149.803,0 -293.446,125.18 -289.345,322.181c0,203.161 133.39,322.18 309.868,322.18c73.882,0 155.964,-26.674 219.575,-69.771l-61.56,-108.757c-45.147,26.674 -88.244,38.986 -133.391,38.986c-82.083,0 -145.703,-38.986 -162.115,-133.391l371.438,0c2.05,-14.362 6.151,-43.086 6.151,-75.922Z" style="fill:#faf9f8;"/>
  <path d="M578.955,751.82c-14.362,0 -32.835,-12.312 -32.835,-51.308l0,-695.669l-291.406,0c-110.807,0 -160.065,43.096 -160.065,176.487c0,88.234 12.312,137.492 12.312,213.414c0,43.097 -26.674,88.244 -106.706,92.344l0,106.717c80.032,2.05 106.706,47.197 106.706,90.294c0,75.932 -12.312,121.069 -12.312,209.313c0,133.391 49.258,176.487 158.015,176.487l80.033,0l0,-94.404l-24.624,0c-51.298,0 -67.721,-20.514 -67.721,-88.234c0,-67.721 6.161,-125.18 6.161,-201.112c0,-94.395 -30.785,-131.34 -92.354,-145.702l0,-6.152c61.569,-14.372 92.354,-51.307 92.354,-145.702c0,-73.882 -6.161,-133.391 -6.161,-201.112c0,-67.72 14.362,-86.183 67.721,-86.183l55.408,0l0,588.952c0,125.18 43.097,207.272 168.277,207.272c38.986,0 69.771,-6.161 92.344,-14.372l-20.523,-133.381c-12.312,2.051 -18.463,2.051 -24.624,2.051" style="fill:#faf9f8;"/>
</svg>