<svg xmlns="http://www.w3.org/2000/svg" viewBox="0 0 2279.4 1183.53"><defs><style>.cls-1{fill:#fff;fill-rule:evenodd;}</style></defs><path class="cls-1" d="M0,1078.22H75.22v-298L192.7,1040c13.31,31.23,32.42,42.82,69.44,42.82s55-11.59,68.87-42.82l116.9-259.82v298h75.81v-298c0-28.92-11.58-42.84-35.89-50.36-57.29-17.36-95.48-2.31-112.84,36.46L259.85,1023.25,148.74,766.31C132,727.55,93.17,712.51,35.32,729.85,11.6,737.37,0,751.27,0,780.21v298ZM586.21,835.76H662V999.53c-.57,9.25,2.89,30.09,44,30.65,21.41.58,163.18,0,164.34,0V834.59h75.8v267.93c0,66-81.59,80.43-119.78,81H587.93v-50.34h239c48.61-5.21,42.82-29.5,42.82-37.61v-19.69H709.46c-74.65-.58-122.68-33.56-123.25-71.17,0-3.47,1.72-167.82,0-169ZM2212.28,646c-46.28-1.16-82.18,3.47-112.27,16.21-8.66,3.49-22.57,3.49-23.71,14.47,4.63,4.61,5.19,12.14,9.25,18.52,6.94,11.59,19.11,27.19,30.09,35.29,12.17,9.28,24.32,18.53,37,26.63,22.57,13.88,48,22,70,35.88,12.74,8.1,25.46,18.52,38.2,27.21,6.35,4.63,10.41,12.16,18.52,15v-1.75c-4.05-5.19-5.22-12.71-9.25-18.52-5.8-5.77-11.58-11-17.38-16.77-16.77-22.57-37.61-42.26-60.19-58.44-18.52-12.74-59-30.09-66.55-51.5l-1.14-1.17c12.71-1.17,27.77-5.8,39.92-9.28,19.69-5.18,37.61-4,57.86-9.24,9.27-2.32,18.52-5.22,27.79-8.11v-5.2c-10.41-10.41-17.94-24.31-28.92-34.14-29.51-25.46-61.93-50.34-95.5-71.17-17.93-11.57-41.09-19.11-60.16-28.93-7-3.47-18.52-5.21-22.57-11-10.44-12.72-16.21-29.5-23.74-44.56-16.77-31.83-33-67.12-47.44-100.68-10.41-22.57-16.8-45.14-29.51-66-59.6-98.37-124.43-158-224-216.42-21.4-12.16-46.86-17.37-74.07-23.73-14.46-.58-28.92-1.73-43.39-2.32-9.28-4-18.53-15-26.63-20.26-33-20.83-118-66-142.37-6.36-15.63,37.61,23.15,74.64,36.46,93.74,9.85,13.31,22.56,28.35,29.53,43.4,4,9.83,5.19,20.26,9.25,30.67,9.24,25.46,17.93,53.81,30.09,77.55,6.35,12.15,13.29,24.89,21.4,35.88,4.63,6.37,12.73,9.27,14.46,19.68-8.11,11.58-8.67,28.94-13.3,43.41-20.84,65.39-12.73,146.4,16.77,194.43,9.28,14.46,31.26,46.29,60.78,34.14,26-10.42,20.25-43.4,27.77-72.34,1.75-6.94.58-11.57,4-16.2v1.16c8.1,16.2,16.21,31.83,23.73,48,17.94,28.35,49.19,57.87,75.24,77.54,13.88,10.42,24.87,28.37,42.23,34.72v-1.75h-1.14c-3.48-5.19-8.69-7.51-13.32-11.57-10.42-10.41-22-23.15-30.09-34.72-24.3-32.4-45.7-68.28-64.8-105.31-9.27-17.94-17.38-37.62-24.88-55.55-3.5-6.95-3.5-17.37-9.27-20.83-8.69,12.72-21.4,23.73-27.79,39.35-11,24.87-12.14,55.55-16.19,87.38-2.34.58-1.17,0-2.34,1.15C1602.35,569,1596,549.92,1589,533.72c-17.35-41.09-20.26-107-5.21-154.51,4-12.15,21.42-50.35,14.48-61.92-3.5-11-15-17.35-21.42-26-7.53-11-15.61-24.88-20.82-37-13.88-32.41-20.82-68.29-35.87-100.7-7-15-19.11-30.67-29-44.55-11-15.63-23.13-26.62-31.82-45.13-2.89-6.37-6.94-16.79-2.31-23.72,1.15-4.63,3.48-6.37,8.08-7.53,7.53-6.36,29,1.74,36.48,5.2,21.4,8.68,39.33,16.79,57.27,28.93,8.11,5.78,16.8,16.78,27.21,19.68h12.17c18.52,4,39.33,1.16,56.69,6.36,30.67,9.84,58.44,24.31,83.34,39.93,75.8,48,138.31,116.32,180.54,197.91,6.94,13.31,9.83,25.46,16.21,39.35,12.17,28.36,27.21,57.29,39.34,85.07,12.17,27.2,23.73,55,41.09,77.54,8.69,12.16,43.39,18.51,59,24.88,11.59,5.2,29.51,9.84,39.95,16.2,19.66,12.15,39.34,26,57.86,39.35,9.25,6.93,38.19,21.39,39.92,33Z"/><path class="cls-1" d="M1622,143.08a91.14,91.14,0,0,0-23.7,2.9v1.15h1.14c4.63,9.26,12.73,15.63,18.52,23.72,4.63,9.26,8.69,18.52,13.32,27.78l1.14-1.15c8.11-5.79,12.16-15,12.16-28.94-3.47-4-4-8.1-6.93-12.15-3.48-5.78-11-8.68-15.65-13.31Z"/><path class="cls-1" d="M1004,1078.22H1221.6c25.46,0,49.77-5.19,69.44-14.47,33-15,48.61-35.29,48.61-61.9V946.3c0-21.4-17.94-41.67-53.8-55.55-18.52-6.94-41.67-11-64.24-11h-91.42c-30.68,0-45.14-9.27-49.2-29.5a28.56,28.56,0,0,1-.57-6.94V809.16a26.22,26.22,0,0,1,.57-6.36c4-15.63,12.15-19.69,38.78-22.56h222.78V729.87H1130.74c-30.67,0-46.87,1.75-61.33,6.39-44.57,13.87-64.24,35.87-64.24,74.62v44c0,34.12,38.2,63.07,103,70,6.93.58,14.46.58,22,.58h78.13a34.72,34.72,0,0,1,8.08.59c23.73,2.31,34.15,6.35,41.09,15,4.63,4.63,5.79,8.69,5.79,13.9v44c0,5.19-3.47,12.17-10.41,17.94s-18,9.83-32.42,10.41c-2.9,0-4.61.59-7.53.59H1004v50.31Zm806.65-87.37c0,51.5,38.78,80.43,116.33,86.22,7.52.59,14.46,1.15,22,1.15h196.75v-50.34H1947.25c-44,0-60.77-11-60.77-37.61V729.86h-75.82v261Zm-423,2.3V813.78c0-45.72,32.4-73.52,95.5-82.18,6.94-.58,13.88-1.17,20.24-1.17h143.5c7.52,0,13.9.59,21.43,1.17,63.07,8.66,94.88,36.46,94.88,82.18V993.15c0,37-13.29,56.71-44.56,70l74.07,67.11h-87.36l-60.2-54.38-60.77,3.47h-81a176.89,176.89,0,0,1-44-5.77c-48-13.33-71.74-38.79-71.74-80.46Zm81.59-4c0,2.31,1.17,4.6,1.75,7.52,4,20.82,23.71,32.4,53.8,32.4h68.3l-62.49-56.72H1618l55,49.78q15.66-8.7,19.11-24.32a32.81,32.81,0,0,0,.58-7.52V818.39a28.2,28.2,0,0,0-.58-6.94c-4-19.66-23.71-30.64-53.23-30.64h-114c-33.56,0-55.55,14.46-55.55,37.58V989.13Zm711.21,89.67h11v-42.23h14.46v-8.69h-40.5v8.69h15v42.23Zm83.91,0h10.41v-50.92h-15.6l-12.74,34.73-13.88-34.73h-15v50.92h9.83v-38.75h.58l14.46,38.75h7.53l14.46-38.75v38.75Z"/></svg>