<svg xmlns="http://www.w3.org/2000/svg" viewBox="0 0 2495.74 704.77"><defs><style>.cls-1{fill:#fff;}</style></defs><path class="cls-1" d="M2295.84,250.14a34.58,34.58,0,0,0-17.21,4.21l-165.47,95.56a34.87,34.87,0,0,0-17.22,30.22V570.89a34.89,34.89,0,0,0,17.22,30.21l43.21,24.95c21,10.34,28.74,10.18,38.29,10.18,31.09,0,48.84-18.86,48.84-51.64V396.28a4.72,4.72,0,0,0-4.92-4.56h-20.73a4.7,4.7,0,0,0-4.92,4.56V584.59c0,14.53-15.13,29.14-39.69,16.86l-45-26.35a5,5,0,0,1-2.81-4.21V380.12a5.56,5.56,0,0,1,2.81-4.57l165.11-95.19a4.87,4.87,0,0,1,4.92,0l165.12,95.2a5.61,5.61,0,0,1,2.81,4.57V570.89a5.31,5.31,0,0,1-2.46,4.57l-165.47,95.2a5.06,5.06,0,0,1-4.92,0l-42.51-25.29a4.43,4.43,0,0,0-4.21,0c-11.73,6.65-13.94,7.42-24.95,11.24-2.71.95-6.82,2.42,1.41,7l55.51,32.67a34.71,34.71,0,0,0,34.43,0l165.47-95.21a34.92,34.92,0,0,0,17.21-30.21V380.13a34.86,34.86,0,0,0-17.21-30.21l-165.47-95.56a34.52,34.52,0,0,0-17.22-4.22Z"/><path class="cls-1" d="M2340.11,386.45c-47.12,0-75.18,20.05-75.18,53.4,0,36.17,27.85,46.11,73.07,50.59,54.1,5.29,58.32,13.24,58.32,23.89,0,18.47-14.73,26.35-49.53,26.35-43.74,0-53.35-10.92-56.57-32.68a4.76,4.76,0,0,0-4.57-4.21h-21.43a5,5,0,0,0-4.91,4.92c0,27.84,15.14,60.77,87.48,60.77,52.35,0,82.55-20.55,82.55-56.56,0-35.69-24.39-45.28-75.18-52-51.32-6.79-56.21-10.12-56.21-22.13,0-9.93,4.15-23.2,42.16-23.2,33.95,0,46.5,7.33,51.64,30.22a4.8,4.8,0,0,0,4.57,3.86h21.43a5.2,5.2,0,0,0,3.51-1.75,4.59,4.59,0,0,0,1.41-3.51c-3.32-39.43-29.61-58-82.56-58Z"/><path class="cls-1" d="M1323.05,0a10.51,10.51,0,0,0-10.54,10.54V279.3a7.12,7.12,0,0,1-3.51,6.32,7.32,7.32,0,0,1-7.38,0l-43.91-25.29a21,21,0,0,0-21.08,0L1061.32,361.5a21.61,21.61,0,0,0-10.54,18.63V582.48a21,21,0,0,0,10.54,18.27l175.31,101.18a21,21,0,0,0,21.08,0L1433,600.75a21,21,0,0,0,10.54-18.27V78a21.43,21.43,0,0,0-10.88-18.62L1328.32,1.05a10.34,10.34,0,0,0-5.27-1ZM195.33,252.6a19.75,19.75,0,0,0-9.48,2.45L10.54,356.23A21,21,0,0,0,0,374.5L.35,646.07a10.35,10.35,0,0,0,5.27,9.13,10.23,10.23,0,0,0,10.54,0l104-59.72A21.45,21.45,0,0,0,131,577.21V450.39a21,21,0,0,1,10.54-18.27l44.26-25.65a21.17,21.17,0,0,1,21.08,0l44.27,25.65a21,21,0,0,1,10.54,18.27V577.21a21.51,21.51,0,0,0,10.89,18.27l104,59.72a10.23,10.23,0,0,0,10.54,0,10.54,10.54,0,0,0,5.27-9.13l.34-271.57a20.89,20.89,0,0,0-10.53-18.27L206.92,255.05a19.58,19.58,0,0,0-9.48-2.45Zm1575.3,2.45a21,21,0,0,0-10.54,2.82L1584.78,359.05a21,21,0,0,0-10.54,18.26V579.67a21.17,21.17,0,0,0,10.89,18.27L1759,697a21.1,21.1,0,0,0,20.73.34l105.4-58.66a10.69,10.69,0,0,0,5.62-9.13,10.41,10.41,0,0,0-5.27-9.14L1709.15,519.24a11.36,11.36,0,0,1-5.62-9.49V446.52a10.82,10.82,0,0,1,5.62-9.13l54.8-31.63a10.55,10.55,0,0,1,10.54,0l54.8,31.63a10.48,10.48,0,0,1,5.27,9.13V496.4a10.54,10.54,0,0,0,15.81,9.13l105.05-61.11A21.13,21.13,0,0,0,1966,426.15V377.32a21.07,21.07,0,0,0-10.54-18.27L1781.17,257.87a20.78,20.78,0,0,0-10.54-2.81ZM1246.46,406.12a5.91,5.91,0,0,1,2.81.7l60.08,34.78a5.44,5.44,0,0,1,2.81,4.56v69.56a5.42,5.42,0,0,1-2.81,4.57l-60.08,34.78a5.28,5.28,0,0,1-5.27,0l-60.07-34.78a5.44,5.44,0,0,1-2.81-4.57V446.16a5.45,5.45,0,0,1,2.81-4.56L1244,406.82a4.59,4.59,0,0,1,2.47-.69h0Z"/><path class="cls-1" d="M722,254a21.08,21.08,0,0,0-10.54,2.81L536.11,357.64a21.56,21.56,0,0,0-10.54,18.62V578.61a21,21,0,0,0,10.54,18.28l175.3,101.17a21,21,0,0,0,21.08,0L907.8,596.89a21,21,0,0,0,10.53-18.28V376.26a21.56,21.56,0,0,0-10.53-18.62L732.49,256.81A21,21,0,0,0,722,254ZM1770.27,434.58a4.32,4.32,0,0,0-2.1.35l-33.73,19.67a4.11,4.11,0,0,0-2.11,3.52v38.64a4.12,4.12,0,0,0,2.11,3.52l33.73,19.32a3.68,3.68,0,0,0,3.86,0l33.73-19.33a4.15,4.15,0,0,0,2.11-3.51V458.11a4.16,4.16,0,0,0-2.11-3.51L1772,434.92a3,3,0,0,0-1.76-.34Z"/></svg>