<svg width="100%" height="100%" viewBox="0 0 2427 308" version="1.1" xmlns="http://www.w3.org/2000/svg" style="fill-rule:evenodd;clip-rule:evenodd;stroke-linejoin:round;stroke-miterlimit:2;"><path d="M1748.71,3.7l-49.71,0l0,304.12l233.38,0l31.62,-49.68l-215.29,0l0,-254.44Zm-681.21,15.05l-182.17,289.09l60.23,0l55,-87.33l117.44,0l30.87,-49.67l-117.49,0l64,-100.13l149.82,237.14l60.22,0l-183.7,-289.85c-11.3,-18.83 -41.42,-18.83 -54.22,0.75Zm353.07,34.54l208.9,0l30.8,-49.65l-241.27,0.15c-83.92,0 -139.16,68 -139.16,152c0,84 55.25,152 139.16,152l204.07,-0.25l32,-49.27l-234.5,0c-56.58,0 -89.67,-45.88 -89.67,-102.48c0,-56.6 33.1,-102.5 89.67,-102.5Zm-1066.08,-49.5l-215.31,0c-83.93,0 -139.18,68.04 -139.18,151.98c0,83.94 55.25,152 139.18,152l215.31,0c83.93,0 139.18,-68 139.18,-152c0,-84 -55.25,-151.98 -139.18,-151.98Zm0,254.44l-215.31,0c-56.59,0 -89.67,-45.88 -89.67,-102.46c0,-56.58 33.08,-102.48 89.67,-102.48l215.31,0c56.59,0 89.67,45.89 89.67,102.48c0,56.59 -33.08,102.46 -89.67,102.46Zm1751.51,-204.94l209,0l30.83,-49.65l-241.24,0.15c-84,0 -139.19,68 -139.19,152c0,84 55.25,152 139.19,152l204,-0.25l31.94,-49.27l-234.53,0c-48.31,0 -79.23,-33.4 -87.31,-78.38l263.09,0l31.62,-49.69l-294.68,0c8.61,-44.07 39.7,-76.91 87.28,-76.91Zm-1329.23,131c49.499,0 90.23,-40.731 90.23,-90.23c0,-49.499 -40.731,-90.23 -90.23,-90.23l-253.28,-0.13l0,304.12l55.7,0l0,-254.51l197.62,0c22.1,0.346 40.092,18.622 40.092,40.725c0,22.103 -17.992,40.379 -40.092,40.725l-158.46,0l178.76,172.73l71.89,0l-128,-123.11l35.76,-0.12l0.01,0.03Zm1622.29,-184.29c-14.94,0 -27.56,11.49 -27.56,27.07c0,15.58 12.62,27.22 27.56,27.22c0.107,0.001 0.213,0.002 0.32,0.002c14.872,0 27.11,-12.238 27.11,-27.11c0,-0.037 0,-0.075 0,-0.112c0,-15.59 -12.65,-27.07 -27.43,-27.07Zm0,49.75c-12.42,0 -22.12,-9.62 -22.12,-22.7c0,-12.85 9.7,-22.54 22.12,-22.54c12.42,0 22,9.7 22,22.54c-0.06,13.08 -9.72,22.7 -22,22.7Z" style="fill:#fff;"/><path d="M2403.44,29c4.59,-0.57 8.11,-3 8.11,-8.62c0,-6.18 -3.65,-8.91 -11.05,-8.91l-11.94,0l0,31.32l4.74,0l0,-13.57l5.47,0l8.23,13.57l5.29,0l-8.85,-13.79Zm-10.14,-3.8l0,-9.7l6.48,0c3.3,0 6.81,0.71 6.81,4.59c0,4.81 -3.59,5.1 -7.62,5.1l-5.67,0l0,0.01Z" style="fill:#fff;"/></svg>