<svg xmlns="http://www.w3.org/2000/svg" viewBox="0 0 186.86 45.14"><defs><style>.cls-1{fill:#fff;}</style></defs><path class="cls-1" d="M139.46,12.25c-2.4,1.3-2.3,5.5.3,6.5,2.8,1,5.8,1.1,8.6,1.8a2.38,2.38,0,0,1,1.7,1.2,2.93,2.93,0,0,1-1.5,4,11.09,11.09,0,0,1-7.2-.2,3.93,3.93,0,0,1-2.3-3.5,12.1,12.1,0,0,0-1.9.1,5.2,5.2,0,0,0,1.5,3.8c1.8,1.4,4.1,1.6,6.3,1.7a10.9,10.9,0,0,0,5.9-1.3c2-1.4,2.2-5.1-.2-6.3-2.2-1.1-4.7-1.2-7-1.7a10.42,10.42,0,0,1-3.4-1.1,2.49,2.49,0,0,1,1-4.1,10.94,10.94,0,0,1,6.7.1c1.3.4,1.8,1.8,2,2.9h1.9a4.18,4.18,0,0,0-1.4-3.3c-1.6-1.3-3.8-1.4-5.7-1.4A9.87,9.87,0,0,0,139.46,12.25Z"/><path class="cls-1" d="M68.16,12.75a5.76,5.76,0,0,0-3.8-1.2c-2.9,0-5.8.1-8.7.1v15.4h1.5c0-2.2-.1-4.4,0-6.5h7.4c1.8-.1,3.9-.9,4.6-2.7A4.76,4.76,0,0,0,68.16,12.75Zm-.8,4.8c-.5,1.3-2,1.7-3.3,1.8-2.3.1-4.6,0-6.8,0V13h6.6a3.86,3.86,0,0,1,3.1,1.1A3.88,3.88,0,0,1,67.36,17.55Z"/><path class="cls-1" d="M173.56,11.65v15.4h13.3v-1.3c-3.8-.1-7.6,0-11.5-.1V11.55A10.87,10.87,0,0,1,173.56,11.65Z"/><path class="cls-1" d="M157.16,12.45a13.33,13.33,0,0,1,7.1-1.1,8.73,8.73,0,0,1,6.1,2.8,8.12,8.12,0,0,1,1.5,7.8,7.61,7.61,0,0,1-2.5,3.6c.9.6,1.8,1.2,2.7,1.9-.4.4-.8.7-1.2,1.1-.9-.6-1.8-1.3-2.7-1.8a10.41,10.41,0,0,0-2.2.6,16.17,16.17,0,0,1-6.2,0,8.31,8.31,0,0,1-5.6-3.7,8.67,8.67,0,0,1-.8-6.5A7.53,7.53,0,0,1,157.16,12.45Zm3,.4a6.65,6.65,0,0,0-4.8,4.1,7.18,7.18,0,0,0,1.2,6.9,7.7,7.7,0,0,0,5.9,2.4,8.11,8.11,0,0,0,6.6-2.5,6.89,6.89,0,0,0-1-9.5C165.86,12.35,162.86,12.25,160.16,12.85Z"/><path class="cls-1" d="M96.76,13.65h1.6V17h2.7a4.1,4.1,0,0,0,.1,1.1h-2.7v6.5c0,.5,0,1.1.5,1.4a5.83,5.83,0,0,0,2.3.2v1a6.9,6.9,0,0,1-3.5-.3,1.61,1.61,0,0,1-.8-1.8v-7H95v-1h2A20,20,0,0,1,96.76,13.65Z"/><path class="cls-1" d="M79.56,17.55a9.53,9.53,0,0,0-6-.8,5.16,5.16,0,0,0-4,2.8,6.06,6.06,0,0,0,.1,5.1,5.51,5.51,0,0,0,4.6,2.7c2.3.2,4.9-.1,6.6-1.9C82.66,23.15,82.26,19.05,79.56,17.55Zm-.3,7.5a4.84,4.84,0,0,1-3.4,1.3,5.31,5.31,0,0,1-3.9-1.1,4.82,4.82,0,0,1-1-4.9,4,4,0,0,1,3.4-2.6,6.49,6.49,0,0,1,4.3.7,3.56,3.56,0,0,1,1.6,2.8A4.31,4.31,0,0,1,79.26,25.05Z"/><path class="cls-1" d="M84.06,17.55a7,7,0,0,1,3.5-.9c1.7-.1,3.6-.1,5,.9a3.13,3.13,0,0,1,1.2,2.4h-1.7a2.24,2.24,0,0,0-1.2-1.9,7.34,7.34,0,0,0-4.4-.3c-.9.1-2,.6-2,1.7-.1.7.6,1.3,1.3,1.4,1.9.5,3.9.4,5.8.8a3.8,3.8,0,0,1,2.3,1.3,2.47,2.47,0,0,1-.9,3.4,9.43,9.43,0,0,1-4.7.9c-1.5-.1-3.2-.1-4.5-1a3.34,3.34,0,0,1-1.2-2.5h1.7a2.4,2.4,0,0,0,2.3,2.3c1.7.2,3.6.4,5.2-.4a1.57,1.57,0,0,0-.2-2.8c-2.4-.7-5-.5-7.3-1.3C82.66,21.05,82.66,18.45,84.06,17.55Z"/><path class="cls-1" d="M105.86,16.85a9.43,9.43,0,0,1,5,.1,7.33,7.33,0,0,1,2.3,1.6c0-.6.1-1.1.1-1.6h1.5c.1,3.1,0,6.2.1,9.3a4.32,4.32,0,0,1-1.2,3.6c-1.3,1.2-3.2,1.4-4.9,1.4a10,10,0,0,1-4.5-.8,3.58,3.58,0,0,1-1.6-2.5h1.5c.3.7.6,1.5,1.3,1.8a8.28,8.28,0,0,0,3.5.5c1.3-.1,2.8-.3,3.6-1.4s.6-2.5.6-3.8c-1.6,1.7-4.1,2-6.3,1.7a6.17,6.17,0,0,1-3.8-1.8,5.72,5.72,0,0,1-.8-4.9A4.88,4.88,0,0,1,105.86,16.85Zm1.3,1a4.17,4.17,0,0,0-2.9,1.7,5.09,5.09,0,0,0-.3,4,4.11,4.11,0,0,0,3.3,2.2c1.7.2,3.7,0,4.9-1.3a4.24,4.24,0,0,0-.6-5.9A6,6,0,0,0,107.16,17.85Z"/><path class="cls-1" d="M119.56,17.05a8.89,8.89,0,0,1,3.6-.4V18c-1.3,0-2.7-.2-3.8.6a4,4,0,0,0-1.4,3.3v5.2h-1.5c-.1-3.4-.1-6.7,0-10.1h1.6v1.7A3.86,3.86,0,0,1,119.56,17.05Z"/><path class="cls-1" d="M123.76,19.15c1-1.7,3.1-2.4,5-2.5s4.2.2,5.6,1.7a5.68,5.68,0,0,1,1.5,4h-11.3a4.2,4.2,0,0,0,1.2,2.8,6.05,6.05,0,0,0,5.5,1,3.69,3.69,0,0,0,2.6-2.4h1.7a5,5,0,0,1-3.7,3.3,9,9,0,0,1-7-1C122.86,24.65,122.46,21.35,123.76,19.15Zm2.9-.8a4.09,4.09,0,0,0-1.9,3h9.6a3.55,3.55,0,0,0-.8-2A5.63,5.63,0,0,0,126.66,18.35Z"/><path class="cls-1" d="M28.36,2.75a13.47,13.47,0,0,1,7.7.4,9.76,9.76,0,0,1,4.3,3.2,3.48,3.48,0,0,1,.6,2.4,24.11,24.11,0,0,1-.9,5.9,40.29,40.29,0,0,1-4.3,10l-.6.9a1,1,0,0,0-.1-.3,13.36,13.36,0,0,0,.7-1.8c.5-1.8.1-3.7-.1-5.5s.4-3.4.4-5.1a5.33,5.33,0,0,0-.6-2.4A15.53,15.53,0,0,0,30.06,4,7.35,7.35,0,0,0,28.36,2.75Z"/><path class="cls-1" d="M21.36,3a12.36,12.36,0,0,1,8.9,2.4,13.6,13.6,0,0,1,4.5,6.3c-1.4,0-3.1-.1-4.3.9a3.86,3.86,0,0,0-1,3.7c.6,3.1,2.4,5.7,3.7,8.4a7.49,7.49,0,0,0,1.3,1.8,2.59,2.59,0,0,0-1.4,1.1c-.5.9-.3,1.9-.5,2.9-.3,2.7-.6,5.4-1,8.1a4.3,4.3,0,0,1-2,3.3,7.22,7.22,0,0,1-4.1.8A3.46,3.46,0,0,1,23,40a16.45,16.45,0,0,1-.4-3.1c-.1-2.5-.1-5-.1-7.5a2.58,2.58,0,0,0-1.3-2.5,3.19,3.19,0,0,0-1.4-.3c.4-1.8,1.5-3.4,1.9-5.3a16.1,16.1,0,0,0-.3-6.9,3.16,3.16,0,0,0-2.2-2.4,7.63,7.63,0,0,0-5.1,1,14.37,14.37,0,0,1,2.4-7.2A7.9,7.9,0,0,1,21.36,3Z"/><path class="cls-1" d="M8.06,3.15a18,18,0,0,1,8.3.8,11.32,11.32,0,0,0-2.6,4.5,20.42,20.42,0,0,0-.9,7,21,21,0,0,1-.2,5,6.82,6.82,0,0,0,2.2,5.8c-1.1,1.3-2.2,2.5-3.3,3.8-.5.6-1.1,1.2-1.9,1a4.09,4.09,0,0,1-2-1.9,30.43,30.43,0,0,1-3-7.2,53.41,53.41,0,0,1-2-9,11.33,11.33,0,0,1,1.1-6.8A6.39,6.39,0,0,1,8.06,3.15Z"/><path class="cls-1" d="M31.36,13.45a5.32,5.32,0,0,1,3.5-.5c-.1,1.6-.6,3.2-.4,4.9.2,2,.7,4.2-.2,6.2-1.3-2.6-3-5-3.5-7.9A3.25,3.25,0,0,1,31.36,13.45Zm.4.4c-.3.3,0,.7.3.8a1.19,1.19,0,0,0,1.7-1A2.37,2.37,0,0,0,31.76,13.85Z"/><path class="cls-1" d="M14.06,14.55a7.6,7.6,0,0,1,4.3-1.4,1.81,1.81,0,0,1,1.7,1.4c.7,2.8.9,5.9-.4,8.6a17.55,17.55,0,0,0-1.2,3.2,4.91,4.91,0,0,1-4.6-4c-.3-1.2.1-2.4.1-3.6A29.81,29.81,0,0,0,14.06,14.55Zm3.6-.6c-.2.1-.4.2-.4.4a1.26,1.26,0,0,0,1.9.8c.3-.2.6-.6.3-.9A1.94,1.94,0,0,0,17.66,14Z"/><path class="cls-1" d="M34.36,28.05c.3-.2.8-.5,1.2-.2,1.6.9,3.5.4,5.3.2a7.22,7.22,0,0,1-4,1.7,5.66,5.66,0,0,1-2.9-.2A2,2,0,0,1,34.36,28.05Z"/><path class="cls-1" d="M17.86,30.05c.9-.5,1.3-1.6,2.2-2.2.9-.1,1.7,1.3.9,2a5.06,5.06,0,0,1-6.3,1.2C15.66,30.65,16.86,30.65,17.86,30.05Z"/><path class="cls-1" d="M26.26.75a19.83,19.83,0,0,1,8.4-.5,13.12,13.12,0,0,1,6.8,3.5,6.66,6.66,0,0,1,1.9,2.8,13.5,13.5,0,0,1,0,6A43.67,43.67,0,0,1,38.26,26c1.1,0,2.1-.3,3.2-.4a2.3,2.3,0,0,1,2.4,1.6,3,3,0,0,1-1.2,2.9,11.42,11.42,0,0,1-7.9,2.4c-.2,2.9-.2,5.8-1.4,8.5a7.06,7.06,0,0,1-2.5,2.9,9.12,9.12,0,0,1-3.5,1.2,5.67,5.67,0,0,1-4-.7,5.36,5.36,0,0,1-2.1-3c-.9-2.5-.8-5.1-1-7.7a8,8,0,0,1-5.9.1,4.18,4.18,0,0,1-1.8-1.1,4.24,4.24,0,0,1-3.6.9c-1.6-.4-2.7-1.8-3.6-3.1a31.26,31.26,0,0,1-3.2-7.8,59.48,59.48,0,0,1-2.1-9.5c-.2-2.9,0-5.9,1.6-8.4A8.9,8.9,0,0,1,7.36.85c3.3-.7,6.7,0,9.8.9a11.72,11.72,0,0,1,3.1-1.2A19.92,19.92,0,0,1,26.26.75ZM26.16,2c-.2.1-.5-.1-.7-.1a10.61,10.61,0,0,0-8,1.2,20.3,20.3,0,0,0-8.8-1.3A7.8,7.8,0,0,0,3,4.85c-1.6,2.4-1.8,5.4-1.6,8.1a65.17,65.17,0,0,0,2.5,10.8,27.77,27.77,0,0,0,2.9,6.3,4.37,4.37,0,0,0,2.8,2,3.23,3.23,0,0,0,2.7-1.3c1.2-1.4,2.3-2.7,3.5-4a7.83,7.83,0,0,0,2.5.7c-.5.6-.9,1.3-1.6,1.5-1,.4-2.2.3-3.1,1a1,1,0,0,0-.1,1.6,5.17,5.17,0,0,0,3.2,1.1,5.93,5.93,0,0,0,4.4-1.5,64.38,64.38,0,0,0,.3,7.6,5.62,5.62,0,0,0,1.9,3.9,4.9,4.9,0,0,0,3.9.9,9.33,9.33,0,0,0,3.7-1.5,6.17,6.17,0,0,0,1.8-3.8c.4-2.5.7-5,1-7.6a9.48,9.48,0,0,0,8.1-2.1c.4-.4.9-1.2.4-1.7s-1.2-.4-1.8-.3a6.65,6.65,0,0,1-4.4-.1,43.57,43.57,0,0,0,5.6-12.9,23.33,23.33,0,0,0,.7-5.3,5.74,5.74,0,0,0-.8-2.9,11.69,11.69,0,0,0-6.1-4.1A22.26,22.26,0,0,0,26.16,2Z"/></svg>