<svg xmlns="http://www.w3.org/2000/svg" viewBox="0 0 367.52 106.67"><defs><style>.cls-1,.cls-2{fill:#fff;}.cls-2{opacity:0.44;isolation:isolate;}</style></defs><path id="path46" class="cls-1" d="M138.57,45.41q0-16.9-9.64-17.37a18,18,0,0,0-7.48,1.23,10.92,10.92,0,0,0-3.93,2.07V58.25q6.17,3.87,10.94,3.59Q138.57,61.17,138.57,45.41Zm7.93.47q0,8.59-4,14.26a14.9,14.9,0,0,1-12.52,6.6A22.17,22.17,0,0,1,117.52,63V87.42L110.62,85V30.68A15.56,15.56,0,0,1,115,27.09a29.9,29.9,0,0,1,15-3.68l.1.1a13.72,13.72,0,0,1,12.41,6.6Q146.49,36.26,146.5,45.88Z"/><path id="path48" class="cls-1" d="M188.65,61.93q0,11.52-2.31,15.95T177.5,85a33.79,33.79,0,0,1-11.42,2.27l-1.14-4.34a54.53,54.53,0,0,0,8.78-1.7c3.35-1.13,5.64-2.87,6.9-5.19,1-1.9,1.51-5.51,1.51-10.86V63.35a35.5,35.5,0,0,1-14.83,3.2,13.64,13.64,0,0,1-9-3.2A10.94,10.94,0,0,1,154,54.47V25.77l6.89-2.36V52.3a8.78,8.78,0,0,0,3,7.13,11.27,11.27,0,0,0,7.73,2.41q4.76-.11,10.15-3.68V24.45h6.9Z"/><path id="path50" class="cls-1" d="M215.57,66.36c-.82.07-1.58.1-2.27.1q-5.85,0-9.12-2.79A9.66,9.66,0,0,1,200.93,56V28.79h-4.72V24.45h4.72V12.93l6.89-2.45v14h7.75v4.34h-7.75v27q0,3.89,2.08,5.5c1.19.88,3.09,1.38,5.67,1.51Z"/><path id="path52" class="cls-1" d="M257.32,65.8h-6.9V39.18a12.6,12.6,0,0,0-1.89-7,6.9,6.9,0,0,0-6.07-3.3q-4.74,0-11.86,5V65.8h-6.9V2.17L230.6,0V29a24,24,0,0,1,14.45-4.81,11.53,11.53,0,0,1,8.87,3.68,13,13,0,0,1,3.4,9.16V65.8Z"/><path id="path54" class="cls-1" d="M294,44.33a21.15,21.15,0,0,0-2.46-10.74,10.29,10.29,0,0,0-9.06-5.46q-11.34.66-11.33,16.24a26.64,26.64,0,0,0,2.37,11.93q3,6.11,9.1,6Q294,62.21,294,44.33Zm7.56,0q0,9.26-4.73,15.39-5.19,6.88-14.35,6.89c-6.05,0-10.76-2.3-14.17-6.89q-4.62-6.13-4.62-15.39a22,22,0,0,1,5-14.64,17.23,17.23,0,0,1,13.88-6.32,17.51,17.51,0,0,1,14,6.32A22,22,0,0,1,301.53,44.37Z"/><path id="path56" class="cls-1" d="M341.06,65.8h-6.9V37.67a9.41,9.41,0,0,0-2.78-7.23A10.14,10.14,0,0,0,324,28a16.57,16.57,0,0,0-9.34,3.2V65.8h-6.9V30.3a34,34,0,0,1,10.95-5.66A33.61,33.61,0,0,1,327,23.41a21.27,21.27,0,0,1,4.62.48,13.18,13.18,0,0,1,6.61,3.49,9.23,9.23,0,0,1,2.84,6.8Z"/><path id="path1948" class="cls-1" d="M42.51,2.43a59.4,59.4,0,0,0-9.92.84c-8.78,1.56-10.37,4.8-10.37,10.79V22H43v2.64H14.43c-6,0-11.32,3.62-13,10.52C-.44,43-.53,48,1.46,56.22c1.48,6.15,5,10.53,11,10.53h7.14V57.26a13.18,13.18,0,0,1,13-12.89H53.32A10.46,10.46,0,0,0,63.7,33.83V14.06C63.7,8.44,59,4.21,53.32,3.27A64.63,64.63,0,0,0,42.51,2.43ZM31.29,8.79a4,4,0,1,1-3.9,4A3.94,3.94,0,0,1,31.29,8.79Z"/><path id="path1950" class="cls-1" d="M66.29,24.61v9.22A13.31,13.31,0,0,1,53.32,47H32.59A10.58,10.58,0,0,0,22.22,57.53V77.29c0,5.63,4.89,8.94,10.37,10.55a34.74,34.74,0,0,0,20.73,0c5.23-1.51,10.38-4.56,10.38-10.55V69.38H43V66.75H74.08c6,0,8.28-4.21,10.37-10.53,2.17-6.5,2.08-12.75,0-21.09-1.49-6-4.33-10.52-10.37-10.52ZM54.63,74.66a4,4,0,1,1-3.9,3.94A3.91,3.91,0,0,1,54.63,74.66Z"/><path id="text3004" class="cls-1" d="M354.49,18.3h1.21V10.72h2.86v-.9h-6.94v.9h2.87V18.3m5.14,0h1V11.38l2.24,6.92h1.15l2.34-6.9v6.9h1.12V9.82H366l-2.55,7.27L361.3,9.82h-1.67V18.3"/><path id="path1894" class="cls-2" d="M71,101.27c0,3-12.45,5.4-27.81,5.4s-27.82-2.42-27.82-5.4,12.45-5.39,27.82-5.39S71,98.3,71,101.27Z"/></svg>