<svg xmlns="http://www.w3.org/2000/svg" viewBox="0 0 1609.46 500.82"><defs><style>.cls-1{fill:none;stroke:#fff;stroke-miterlimit:10;}.cls-2{fill:#fff;}</style></defs><path class="cls-1" d="M500.28,138.94q0-7.55-.22-15.08A218.94,218.94,0,0,0,497.17,91a110.66,110.66,0,0,0-10.29-31.22A104.87,104.87,0,0,0,441,13.93a110.83,110.83,0,0,0-31.2-10.28A219.66,219.66,0,0,0,377,.76c-5-.14-10.06-.2-15.09-.23-6,0-11.94,0-17.92,0H156.85c-6,0-11.94,0-17.9,0-5,0-10.06.1-15.09.23-2.74.07-5.49.17-8.23.31A190.14,190.14,0,0,0,91,3.65a113.92,113.92,0,0,0-23.66,6.81A105,105,0,0,0,13.93,59.81,110.53,110.53,0,0,0,3.65,91,219.17,219.17,0,0,0,.76,123.85c-.14,5.05-.2,10.07-.23,15.09,0,6,0,11.94,0,17.91V344c0,6,0,12,0,17.92,0,5,.1,10.06.23,15.08a220.26,220.26,0,0,0,2.89,32.82A110.71,110.71,0,0,0,13.93,441,104.86,104.86,0,0,0,59.82,486.9,111,111,0,0,0,91,497.18a217.76,217.76,0,0,0,32.83,2.89c5,.13,10.06.19,15.09.22,6,0,11.92,0,17.9,0H344c6,0,11.94,0,17.91,0,5,0,10.05-.09,15.07-.22a219.33,219.33,0,0,0,32.85-2.89A110.51,110.51,0,0,0,441,486.9,104.89,104.89,0,0,0,486.87,441a111,111,0,0,0,10.29-31.21A217.88,217.88,0,0,0,500.05,377c.13-5,.19-10.05.22-15.08,0-6,0-11.94,0-17.92V156.85c0-6,0-11.94,0-17.91Z"/><path class="cls-2" d="M396.55,309l0,0c.54-1.89,1.11-3.76,1.6-5.69,20.75-82.64-29.89-180.36-115.56-231.81C320.11,122.39,336.7,184,322,237.94a139.31,139.31,0,0,1-4.64,13.92q-3.66-2.36-7.49-4.43s-85.24-52.62-177.6-145.7c-2.42-2.44,49.25,73.86,107.91,135.83C212.5,222.06,135.48,166,86.73,121.4a220.89,220.89,0,0,0,21,28.88c40.71,51.62,93.81,115.33,157.41,164.24-44.69,27.35-107.84,29.47-170.71,0a258.41,258.41,0,0,1-43.71-26.07A261.83,261.83,0,0,0,168.16,389.22c59.5,25.57,118.66,23.83,162.72.42l0,.05c.21-.13.46-.26.67-.4,1.81-1,3.61-2,5.35-3,21.18-11,63-22.14,85.44,21.53,5.5,10.69,17.19-45.95-25.75-98.79Z"/><path class="cls-2" d="M690,324.87c3.91,34.66,37,57.4,82.91,57.4,43.64,0,75.11-22.73,75.11-54.19,0-27.1-19.07-43.64-62.94-54.66l-42.49-10.8C681.51,247.47,654,219.9,654,174.43c0-56,48.92-94.85,118.51-94.85C840,79.58,888,118.63,889.58,174.9H844.79c-3.44-34.46-31.46-55.59-73.48-55.59-41.58,0-70.51,21.36-70.51,52.59,0,24.34,17.91,38.82,62,50.07l35.38,9.19c68.44,16.76,96.45,43.4,96.45,91.4,0,61.1-48.46,99.45-125.63,99.45-71.65,0-120.57-38.13-124.24-97.15H690Zm489.11,91.62h-45l-52.6-183.26h-.91l-52.37,183.26h-45l-66.6-240h43.62l46.4,192.69h.92l52.36-192.69h42.26L1155,369.18h.92l46.39-192.69h43.18ZM1274.54,112A26.53,26.53,0,1,1,1301,138.37,26.38,26.38,0,0,1,1274.54,112Zm4.61,64.53H1323v240h-43.86Zm330.31,35.38V176.49h-46.38V119.08h-43.65v57.41h-83.84V155.37c.22-21.36,8.48-30.32,28.24-30.32a108.52,108.52,0,0,1,18.14,1.62V92.2a152.55,152.55,0,0,0-23.19-1.84c-46.85,0-66.61,19.53-66.61,64.31v21.81h-33.53v35.38h33.53V416.48h43.64V211.87h83.63V353.56c0,46.39,17.67,64.3,63.61,64.3,9.88,0,21.13-.69,26.19-1.83V380.2a155.06,155.06,0,0,1-16.54,1.15c-20.44,0-29.62-9.65-29.62-31.24V211.87Z"/></svg>