<svg xmlns="http://www.w3.org/2000/svg" viewBox="0 0 2500 2224.41"><defs><style>.cls-1{fill:#fff;}</style></defs><path class="cls-1" d="M721.35,0c-67.52.15-133.61,38.48-167.6,96.94L25.1,1015.26c-33.47,58.63-33.47,135.26,0,193.88l528.65,918.33c34,58.47,100.08,96.81,167.6,96.94h1057.3c67.52-.14,133.62-38.47,167.6-96.94l528.65-918.33c33.47-58.62,33.46-135.25,0-193.88L1946.25,96.94c-34-58.47-100.08-96.8-167.6-96.94ZM731,537.24a21.86,21.86,0,0,1,4.43,0H917.75a24,24,0,0,1,19.94,11.83l309.36,551.29a23.38,23.38,0,0,1,2.93,8.89,23.94,23.94,0,0,1,3-8.89l308.63-551.29a24.1,24.1,0,0,1,20.67-11.83H1764.6c16.14.13,28.24,20.47,20.68,34.77l-302,540.2,302,539.45c8.28,14.38-4.11,35.65-20.68,35.52H1582.23a24.09,24.09,0,0,1-20.67-12.58l-308.63-551.3a23.64,23.64,0,0,1-2.94-8.88,23.75,23.75,0,0,1-2.94,8.89L937.68,1674.6a24.12,24.12,0,0,1-19.92,12.58H735.37c-16.57.14-29-21.14-20.67-35.52l302-539.45L714.7,572c-7.24-13,1.59-32,16.24-34.77Z"/></svg>